<svg width="420" height="466" viewBox="0 0 420 466" fill="none" xmlns="http://www.w3.org/2000/svg">
  <rect width="420" height="466" fill="white" />
  <path
    d="M264.827 98.735V53.1732L260.021 57.9032V98.735L268.295 106.938L260.021 115.14H264.827L273.162 106.938L264.827 98.735Z"
    fill="#FF8AE2" />
  <path
    d="M388.877 49.5811H384.07L392.344 57.7832V71.4339V79.6361V109.632L386.805 115.14H391.612L397.212 109.632V79.6361V71.4339V57.7832L388.877 49.5811Z"
    fill="#FF8AE2" />
  <path
    d="M181.479 27.7281H177.038L185.373 35.9305V49.5811V57.7833V74.1281V109.632L179.776 115.14H184.278L189.814 109.632V35.9305L181.479 27.7281Z"
    fill="#FF8AE2" />
  <path
    d="M104.823 98.735V53.0537L100.017 57.7833V98.735L108.352 106.938L100.017 115.14H104.823L113.158 106.938L104.823 98.735Z"
    fill="#FF8AE2" />
  <path d="M235.868 41.3788H231.062V49.5811H235.868V41.3788Z" fill="#FF8AE2" />
  <path d="M231.062 104.183L235.868 99.4534V60.4777L247.001 49.5811H242.195L231.062 60.4777V104.183Z" fill="#FF8AE2" />
  <path
    d="M236.659 98.7354L239.397 101.489L231.062 109.632L225.526 115.14H230.332L235.869 109.632L244.203 101.489L241.466 98.7354H236.659Z"
    fill="#FF8AE2" />
  <path
    d="M310.091 98.735V57.7833V49.5811V35.9305L301.756 27.7281H296.95L305.284 35.9305V49.5811V57.7833V98.735L313.558 106.937L305.284 115.14H310.091L318.425 106.937L310.091 98.735Z"
    fill="#FF8AE2" />
  <path
    d="M318.425 49.5811H313.558L324.692 60.4773V95.9809L315.992 104.542L318.425 106.937L329.498 95.9809V60.4773L318.425 49.5811Z"
    fill="#FF8AE2" />
  <path
    d="M39.7269 46.2282V66.1651L44.5332 61.4355V46.2282V31.919L35.7725 23.2976H35.7117H30.9663L39.7269 31.919V46.2282Z"
    fill="#FF8AE2" />
  <path
    d="M65.8871 34.7928V46.2282V89.2753V97.8969L71.7276 103.645L74.1611 101.25L70.6934 97.8969V89.2753V46.2282V34.7928V31.919L61.9326 23.2976H57.1267L65.8871 31.919V34.7928Z"
    fill="#FF8AE2" />
  <path
    d="M54.2062 64.3094L39.7269 78.5585V109.392L33.8865 115.14H38.6927L44.5333 109.392V78.5585L54.2062 69.039V64.3094Z"
    fill="#FF8AE2" />
  <path d="M25.1259 34.8528L16.3652 43.4143H21.2322L27.5594 37.1878L25.1259 34.8528Z" fill="#FF8AE2" />
  <path
    d="M82.3747 97.897H77.5684L80.4886 100.771L74.6481 106.518L71.7282 109.392L65.8877 115.14H70.6936L76.5342 109.392L79.4544 106.518L85.2949 100.771L82.3747 97.897Z"
    fill="#FF8AE2" />
  <path
    d="M273.162 49.5811H268.295L279.428 60.4773V95.9809L270.728 104.542L273.162 106.937L284.234 95.9809V60.4773L273.162 49.5811Z"
    fill="#FF8AE2" />
  <path
    d="M367.704 60.4174L348.358 79.4567V98.7349L353.894 104.183L356.328 101.848L353.164 98.7349V79.4567L372.511 60.4174L361.498 49.5811H356.692L367.704 60.4174Z"
    fill="#FF8AE2" />
  <path
    d="M362.23 95.981L365.027 98.735L356.692 106.938L353.894 109.632L348.358 115.14H353.164L358.7 109.632L361.498 106.938L369.833 98.735L367.033 95.981H362.23Z"
    fill="#FF8AE2" />
  <path d="M348.358 74.0083L353.164 69.2787V62.5133L348.358 57.7833V74.0083Z" fill="#FF8AE2" />
  <path
    d="M124.231 101.489V60.4773L113.159 49.5811H108.352L119.425 60.4773V101.489L124.961 106.937L116.687 115.14H121.493L129.767 106.937L124.231 101.489Z"
    fill="#FF8AE2" />
  <path d="M152.885 104.184L155.258 101.848L152.155 98.735V62.3935L147.41 57.7833H147.349V98.735L152.885 104.184Z"
    fill="#FF8AE2" />
  <path
    d="M166.026 95.9813H161.22L163.958 98.7354L155.684 106.938L152.885 109.632L147.349 115.14H152.155L157.692 109.632L160.49 106.938L168.764 98.7354L166.026 95.9813Z"
    fill="#FF8AE2" />
  <path d="M155.684 65.866H160.49L168.764 57.6635L160.49 49.4613H155.684L163.958 57.6635L155.684 65.866Z"
    fill="#FF8AE2" />
  <path d="M198.514 49.5811H193.647L201.982 57.7832L193.647 65.9857H198.514L206.788 57.7832L198.514 49.5811Z"
    fill="#FF8AE2" />
  <path d="M405.483 49.5811H400.68L409.011 57.7832L400.68 65.9857H405.483L413.818 57.7832L405.483 49.5811Z"
    fill="#FF8AE2" />
  <path
    d="M198.514 65.9858H193.647L201.982 74.1281V109.632L196.446 115.14H201.252L206.788 109.632V74.1281L198.514 65.9858Z"
    fill="#FF8AE2" />
  <path
    d="M242.195 49.5811H231.062V41.3787L211.655 60.4774H219.99V109.632L225.526 115.14L231.062 109.632L239.397 101.489L236.659 98.7349L231.062 104.183V60.4774L242.195 49.5811Z"
    fill="#9C4668" />
  <path
    d="M305.284 57.7833V49.5811V35.9305L296.95 27.7281L288.615 35.9305L294.151 41.3788V104.183L305.284 115.14L313.558 106.937L305.284 98.735V57.7833Z"
    fill="#9C4668" />
  <path d="M305.285 57.7832L313.558 65.9857V106.937L324.692 95.9809V60.4773L313.558 49.5811L305.285 57.7832Z"
    fill="#9C4668" />
  <path
    d="M71.7282 103.645L65.8877 97.8969V89.2754V46.2283V34.7929V31.9191L57.1269 23.2977L48.4272 31.9191L54.2066 37.6069V51.9161L39.7274 66.1651V46.2283V31.9191L30.9666 23.2977H30.9058L13.3845 40.4807L16.3656 43.4144L25.1262 34.8528L28.0464 37.7266V109.392L33.8869 115.14L39.7274 109.392V78.5584L54.2066 64.3094V89.2754V103.645L65.8877 115.14L71.7282 109.392L74.6481 106.518L80.4886 100.771L77.5683 97.8969L71.7282 103.645Z"
    fill="#9C4668" />
  <path d="M260.021 57.7833L248.887 68.68V104.183L260.021 115.14L268.295 106.938L260.021 98.735V57.7833Z"
    fill="#9C4668" />
  <path d="M260.021 57.7832L268.295 65.9857V106.937L279.428 95.9809V60.4773L268.295 49.5811L260.021 57.7832Z"
    fill="#9C4668" />
  <path
    d="M367.704 60.4174L356.693 49.5811L348.358 57.7832L356.632 65.8659L348.358 74.0082V57.7832L337.224 68.6799V104.183L348.358 115.14L353.894 109.632L356.693 106.937L365.027 98.7349L362.23 95.9809L353.894 104.183L348.358 98.7349V79.4567L367.704 60.4174Z"
    fill="#9C4668" />
  <path d="M100.018 57.7833L88.8843 68.68V104.183L100.018 115.14L108.353 106.938L100.018 98.735V57.7833Z"
    fill="#9C4668" />
  <path
    d="M119.425 60.4773L108.352 49.5811L100.017 57.7832L108.352 65.9858V106.937L116.687 115.14L124.961 106.937L119.425 101.489V60.4773Z"
    fill="#9C4668" />
  <path
    d="M152.886 104.183L147.349 98.7353V57.7833L136.216 68.68V104.183L147.349 115.14L152.886 109.632L155.684 106.938L163.958 98.7353L161.22 95.981L152.886 104.183Z"
    fill="#9C4668" />
  <path d="M155.711 49.4891L147.355 57.6924L155.711 65.8952L164.067 57.6924L155.711 49.4891Z" fill="#9C4668" />
  <path d="M193.721 49.5508L185.365 57.754L193.721 65.9569L202.077 57.754L193.721 49.5508Z" fill="#9C4668" />
  <path
    d="M190.909 79.6362V109.632L196.445 115.14L201.982 109.632V74.1281L193.647 65.9858L185.373 74.1281L190.909 79.6362Z"
    fill="#9C4668" />
  <path
    d="M185.373 49.5811V35.9305L177.038 27.7281L168.703 35.9305L174.24 41.3788V109.632L179.776 115.14L185.373 109.632V74.1281V57.7833V49.5811Z"
    fill="#9C4668" />
  <path d="M400.748 49.5476L392.395 57.7505L400.748 65.9537L409.105 57.7508L400.748 49.5476Z" fill="#9C4668" />
  <path
    d="M375.735 57.7832L381.27 63.2314V71.4339V79.6361V109.632L386.805 115.14L392.344 109.632V79.6361V71.4339V57.7832L384.07 49.5811L375.735 57.7832Z"
    fill="#9C4668" />
  <path
    d="M255.458 28.5065V25.2735H256.736C257.892 25.2735 258.804 26.1716 258.804 27.3091V36.1101C257.527 36.5292 256.614 37.7266 256.614 39.1636C256.614 40.0616 256.979 40.8399 257.527 41.4386C258.135 42.0374 258.926 42.3966 259.899 42.3966C261.724 42.3966 263.184 40.9597 263.184 39.1636C263.184 37.8464 262.333 36.7088 261.177 36.17V27.3091C261.177 26.1117 260.69 25.034 259.838 24.1958C258.987 23.3576 257.892 22.8786 256.675 22.8786H255.397V19.6456L250.956 24.0162L255.458 28.5065ZM259.96 37.7266C260.386 37.7266 260.751 37.9063 261.055 38.1457C261.299 38.3852 261.481 38.8043 261.481 39.1636C261.481 39.5826 261.299 39.9419 261.055 40.1814C260.751 40.4807 260.386 40.6004 260.021 40.6004C259.169 40.6004 258.5 39.9419 258.5 39.1037C258.439 38.3852 259.108 37.7266 259.96 37.7266Z"
    fill="#9C4668" />
  <path
    d="M250.287 39.2234C250.287 37.9063 249.435 36.7688 248.279 36.2299V27.1295C249.435 26.6506 250.287 25.513 250.287 24.136C250.287 22.3399 248.827 20.903 247.002 20.903C245.177 20.903 243.717 22.3399 243.717 24.136C243.717 24.9742 244.021 25.8124 244.629 26.4111C244.994 26.7703 245.42 27.0098 245.846 27.1894V36.1701C244.568 36.5891 243.656 37.7866 243.656 39.2234C243.656 40.1215 244.021 40.8999 244.568 41.4986C245.176 42.0973 245.967 42.4565 246.941 42.4565C248.827 42.4565 250.287 40.9597 250.287 39.2234ZM247.002 25.6328C246.576 25.6328 246.211 25.4531 245.968 25.2136C245.663 24.9143 245.542 24.5551 245.542 24.1959C245.542 23.3577 246.211 22.6991 247.063 22.6991C247.488 22.6991 247.853 22.8787 248.158 23.1182C248.401 23.3576 248.584 23.7768 248.584 24.136C248.523 24.9742 247.853 25.6328 247.002 25.6328ZM247.002 40.6604C246.15 40.6604 245.481 40.0018 245.481 39.1636C245.481 38.7445 245.663 38.3853 245.907 38.1458C246.211 37.8464 246.576 37.7267 246.941 37.7267C247.367 37.7267 247.732 37.9063 248.036 38.1458C248.279 38.3853 248.462 38.8044 248.462 39.1636C248.523 40.0018 247.853 40.6604 247.002 40.6604Z"
    fill="#9C4668" />
  <path
    d="M336.007 54.1313C337.346 52.9339 337.468 50.8984 336.251 49.5811C335.886 49.222 335.521 48.9225 335.095 48.7427V42.5762C337.407 45.5099 340.145 46.7671 342.213 47.3659C342.335 47.9047 342.578 48.3836 342.943 48.8027C343.551 49.4613 344.342 49.8207 345.194 49.8803C346.046 49.9402 346.898 49.641 347.567 49.0423C348.905 47.8448 349.027 45.8092 347.81 44.4921C347.202 43.8335 346.411 43.4743 345.559 43.4144C344.768 43.3545 344.038 43.594 343.369 44.073C343.308 44.1328 343.247 44.1927 343.186 44.2526C342.943 44.4921 342.7 44.7316 342.578 45.0309C340.753 44.4322 338.319 43.1151 336.372 40.1814C337.468 38.9839 337.528 37.1279 336.372 35.8707C335.217 34.6134 333.27 34.4338 331.931 35.4516C331.871 35.5114 331.81 35.5713 331.749 35.6312C330.411 36.8286 330.289 38.8642 331.505 40.1814C331.871 40.6004 332.296 40.8399 332.783 41.0196V48.6832C332.479 48.8027 332.175 48.9225 331.931 49.1621C331.871 49.222 331.81 49.2816 331.749 49.3415C331.08 49.9402 330.715 50.7187 330.654 51.5567C330.593 52.395 330.897 53.2331 331.505 53.8917C332.601 55.1491 334.669 55.2689 336.007 54.1313ZM344.403 45.5099C344.707 45.2704 345.072 45.0908 345.498 45.1506C345.924 45.1506 346.289 45.3303 346.532 45.6296C347.08 46.2283 347.019 47.1863 346.411 47.7251C346.411 47.7251 346.35 47.7849 346.289 47.7849C345.985 48.0246 345.681 48.0845 345.316 48.0845C344.89 48.0845 344.525 47.9047 344.281 47.6054C344.038 47.306 343.856 46.9468 343.916 46.5277C343.916 46.1684 344.099 45.8092 344.403 45.5099ZM332.905 36.9483C333.513 36.4095 334.486 36.4694 335.034 37.0681C335.582 37.6668 335.521 38.6247 334.912 39.1636L334.851 39.2234C334.243 39.7024 333.33 39.5827 332.844 39.0438C332.236 38.3852 332.296 37.4872 332.905 36.9483ZM332.357 51.6166C332.357 51.1976 332.54 50.8385 332.844 50.5989C333.452 50.06 334.426 50.1199 334.973 50.7187C335.521 51.3174 335.46 52.2752 334.851 52.8141L334.791 52.874C334.182 53.3529 333.27 53.2331 332.783 52.6942C332.479 52.395 332.296 51.976 332.357 51.6166Z"
    fill="#9C4668" />
  <path
    d="M98.3746 20.9628C98.3746 20.7233 98.4356 20.4239 98.5573 20.1844H94.1768V22.0404H98.5573C98.3746 21.7411 98.3139 21.322 98.3746 20.9628Z"
    fill="#9C4668" />
  <path
    d="M104.458 21.3219C104.458 21.5614 104.398 21.8608 104.276 22.1003H108.656V20.2443H104.337C104.398 20.5436 104.458 20.9028 104.458 21.3219Z"
    fill="#9C4668" />
  <path
    d="M105.371 21.1424C105.371 21.2022 105.371 21.322 105.371 21.3818C105.31 22.4595 104.824 23.4174 104.033 24.076C103.242 24.7945 102.207 25.0938 101.173 25.034C98.983 24.9142 97.2797 23.0582 97.4014 20.9029C97.4621 19.8252 97.9488 18.8672 98.7397 18.2087C99.5305 17.4902 100.565 17.1909 101.599 17.2507C103.789 17.3106 105.371 19.0469 105.371 21.1424ZM99.2875 21.1424C99.2875 22.22 100.139 23.1181 101.295 23.2378C101.843 23.2977 102.39 23.0582 102.816 22.699C103.242 22.3397 103.485 21.8009 103.546 21.2621C103.607 20.1245 102.755 19.1666 101.599 19.0469L101.66 18.1488L101.599 19.0469C101.051 18.987 100.504 19.2265 100.078 19.5857C99.6522 19.9449 99.4088 20.4837 99.3481 21.0226C99.2875 21.0226 99.2875 21.0825 99.2875 21.1424Z"
    fill="#9C4668" />
  <path
    d="M370.138 119.391C370.138 119.151 370.2 118.851 370.322 118.612H365.938V120.468H370.322C370.2 120.169 370.138 119.75 370.138 119.391Z"
    fill="#9C4668" />
  <path
    d="M376.223 119.75C376.223 119.989 376.162 120.289 376.04 120.528H380.419V118.672H376.101C376.223 118.971 376.28 119.331 376.223 119.75Z"
    fill="#9C4668" />
  <path
    d="M377.196 119.57C377.196 119.63 377.196 119.75 377.196 119.81C377.135 120.887 376.647 121.845 375.857 122.504C375.067 123.162 374.03 123.522 372.996 123.462C370.806 123.342 369.105 121.486 369.227 119.331C369.288 118.253 369.772 117.295 370.562 116.637C371.355 115.918 372.389 115.619 373.423 115.678C375.552 115.798 377.196 117.475 377.196 119.57ZM371.111 119.57C371.111 120.648 371.962 121.546 373.118 121.666C373.667 121.726 374.213 121.486 374.64 121.127C375.067 120.768 375.308 120.229 375.369 119.69C375.43 118.552 374.579 117.594 373.423 117.475L373.484 116.577L373.423 117.475C372.874 117.415 372.328 117.654 371.901 118.014C371.477 118.373 371.233 118.912 371.172 119.451C371.111 119.51 371.111 119.51 371.111 119.57Z"
    fill="#9C4668" />
  <path
    d="M51.2257 125.617C51.2257 125.378 51.2863 125.079 51.408 124.839H47.0278V126.695H51.408C51.2257 126.396 51.1646 125.976 51.2257 125.617Z"
    fill="#9C4668" />
  <path
    d="M57.3092 125.976C57.3092 126.216 57.2482 126.515 57.1265 126.755H61.507V124.899H57.1875C57.2482 125.198 57.3092 125.557 57.3092 125.976Z"
    fill="#9C4668" />
  <path
    d="M58.2216 125.797C58.2216 125.857 58.2216 125.976 58.2216 126.036C58.1609 127.114 57.6741 128.072 56.8833 128.73C56.0925 129.449 55.0583 129.748 54.0237 129.689C51.8336 129.569 50.1303 127.713 50.252 125.557C50.3127 124.48 50.7994 123.522 51.5902 122.863C52.3814 122.205 53.4156 121.846 54.4498 121.905C56.5793 121.965 58.2216 123.701 58.2216 125.797ZM52.138 125.797C52.138 126.875 52.9895 127.773 54.1454 127.892C54.6932 127.952 55.2406 127.713 55.6664 127.354C56.0925 126.994 56.3359 126.455 56.3965 125.916C56.4576 124.779 55.6057 123.821 54.4498 123.701L54.5105 122.743L54.4498 123.701C53.9024 123.641 53.3546 123.881 52.9289 124.24C52.5031 124.6 52.2597 125.138 52.1987 125.677C52.138 125.737 52.138 125.737 52.138 125.797Z"
    fill="#9C4668" />
  <path
    d="M206.849 39.3433C206.849 39.1038 206.909 38.8044 207.031 38.5649H202.651V40.4209H207.031C206.909 40.0617 206.849 39.7025 206.849 39.3433Z"
    fill="#9C4668" />
  <path
    d="M212.932 39.7025C212.932 39.942 212.871 40.2413 212.75 40.4808H217.13V38.5649H212.811C212.932 38.9242 212.993 39.2834 212.932 39.7025Z"
    fill="#9C4668" />
  <path
    d="M213.906 39.5228C213.906 39.5827 213.906 39.7025 213.906 39.7623C213.845 40.84 213.358 41.7979 212.567 42.4565C211.777 43.175 210.742 43.4743 209.708 43.4145C207.518 43.2947 205.814 41.4387 205.936 39.2834C205.997 38.2057 206.484 37.2477 207.275 36.5892C208.066 35.8707 209.1 35.5714 210.134 35.6312C212.263 35.6911 213.906 37.4274 213.906 39.5228ZM207.822 39.5228C207.822 40.6005 208.674 41.4986 209.83 41.6183C210.377 41.6782 210.925 41.4387 211.351 41.0795C211.777 40.7202 212.02 40.1814 212.081 39.6426C212.142 38.505 211.29 37.5471 210.134 37.4274L210.195 36.5293L210.134 37.4274C209.586 37.3675 209.039 37.607 208.613 37.9662C208.187 38.3254 207.944 38.8642 207.883 39.4031C207.822 39.4031 207.822 39.463 207.822 39.5228Z"
    fill="#9C4668" />
  <path
    d="M146.193 39.8221C145.22 38.3254 143.151 37.9063 141.63 38.9241C140.9 39.403 140.414 40.1215 140.231 40.9597C140.049 41.7979 140.231 42.6959 140.718 43.4144C141.022 43.8934 141.691 44.3723 142.239 44.4921V46.7672C142.239 47.4257 141.691 48.9225 140.049 48.9225H134.086V43.1749C134.512 42.9953 134.938 42.7558 135.242 42.3367C136.459 41.0196 136.337 38.9839 134.999 37.7865C133.661 36.5891 131.592 36.7089 130.375 38.026C129.767 38.6846 129.523 39.5228 129.523 40.361C129.523 41.1992 129.95 42.0374 130.619 42.5762C130.679 42.6361 130.74 42.6959 130.801 42.7558C131.044 42.9354 131.348 43.115 131.653 43.2348V50.8984C131.166 51.0778 130.74 51.3773 130.375 51.7364C129.158 53.0537 129.28 55.0892 130.619 56.2867C130.679 56.3466 130.74 56.4065 130.801 56.4664C132.14 57.4841 134.086 57.3044 135.242 56.047C136.337 54.79 136.337 52.874 135.242 51.7364C135.06 51.5567 134.938 51.4373 134.817 51.3174H139.988C143.151 51.3174 144.55 48.6829 144.55 46.8869V44.6717C144.733 44.6118 144.976 44.4921 145.159 44.3723C145.22 44.3124 145.281 44.2526 145.341 44.1927C145.95 43.7137 146.375 43.0552 146.558 42.2769C146.862 41.3788 146.68 40.5406 146.193 39.8221ZM131.348 40.2412C131.348 39.8221 131.47 39.4629 131.714 39.1636C132.261 38.5649 133.113 38.505 133.721 38.9839C133.782 38.9839 133.782 39.0438 133.782 39.0438C134.39 39.5827 134.451 40.5406 133.904 41.1393C133.356 41.738 132.383 41.7979 131.775 41.259C131.531 40.9597 131.348 40.6004 131.348 40.2412ZM134.025 54.79C133.478 55.3887 132.565 55.4483 131.896 54.9095C131.288 54.3707 131.227 53.4128 131.775 52.8141C132.322 52.2154 133.174 52.1554 133.782 52.6344C133.843 52.6344 133.843 52.6943 133.843 52.6943C134.512 53.2331 134.573 54.1913 134.025 54.79ZM144.916 41.9176C144.855 42.2769 144.611 42.6361 144.246 42.8756C143.942 43.115 143.516 43.1749 143.091 43.115C142.725 43.0552 142.36 42.8157 142.117 42.4564C141.874 42.1571 141.813 41.738 141.874 41.3189C141.934 40.9597 142.117 40.6603 142.421 40.4807C142.482 40.4807 142.482 40.4209 142.543 40.4209C143.212 40.0017 144.185 40.1814 144.611 40.8399C144.916 41.1393 144.976 41.4985 144.916 41.9176Z"
    fill="#9C4668" />
  <path d="M34.3732 35.6909H33.2173V104.243H34.3732V35.6909Z" fill="#FF8AE2" />
  <path d="M60.8986 35.6909H59.7427V99.5134H60.8986V35.6909Z" fill="#FF8AE2" />
  <path d="M179.776 38.8641H178.62V106.878H179.776V38.8641Z" fill="#FF8AE2" />
  <path d="M299.87 39.6423H298.714V99.8724H299.87V39.6423Z" fill="#FF8AE2" />
  <path d="M114.376 63.4711H113.219V102.627H114.376V63.4711Z" fill="#FF8AE2" />
  <path d="M225.952 63.4711H224.796V102.627H225.952V63.4711Z" fill="#FF8AE2" />
  <path d="M386.989 61.5551H385.833V104.483H386.989V61.5551Z" fill="#FF8AE2" />
  <path d="M274.135 62.7524H272.979V94.8433H274.135V62.7524Z" fill="#FF8AE2" />
  <path d="M318.973 63.4711H317.817V95.5619H318.973V63.4711Z" fill="#FF8AE2" />
  <path d="M342.639 70.4163H341.483V102.507H342.639V70.4163Z" fill="#FF8AE2" />
  <path d="M255.215 70.0568H254.059V102.148H255.215V70.0568Z" fill="#FF8AE2" />
  <path d="M142.3 69.2188H141.144V101.968H142.3V69.2188Z" fill="#FF8AE2" />
  <path d="M94.8463 69.9369H93.6904V101.669H94.8463V69.9369Z" fill="#FF8AE2" />
  <path d="M196.628 76.3433H195.472V108.075H196.628V76.3433Z" fill="#FF8AE2" />
  <path d="M34.374 77.9597L33.4614 77.0618L59.8651 51.0178L60.7776 51.976L34.374 77.9597Z" fill="#FF8AE2" />
  <path
    d="M378.108 96.8792C378.714 98.6754 380.053 99.9923 381.27 100.651V91.7302C378.352 94.7239 378.108 96.8193 378.108 96.8792Z"
    fill="#FF8AE2" />
  <path
    d="M214.758 100.891C214.636 100.711 214.575 100.471 214.514 100.292C214.575 100.531 214.636 100.711 214.758 100.891Z"
    fill="#FF8AE2" />
  <path
    d="M219.929 89.8741C213.358 94.9632 214.758 100.891 214.758 100.891C215.792 103.046 217.982 104.303 219.99 105.022L219.929 89.8741Z"
    fill="#FF8AE2" />
  <path
    d="M124.231 79.8757V92.8079C125.63 91.5505 127.151 89.8741 127.881 88.0184C128.063 87.2399 128.55 83.528 124.231 79.8757Z"
    fill="#9C4668" />
  <path
    d="M84.1995 133.281C84.1995 133.281 88.458 135.197 87.4238 146.093C86.9371 150.883 89.5533 155.313 89.5533 155.313C89.5533 155.313 81.705 153.457 80.6102 147.65C79.7583 143.279 83.5301 138.909 84.1995 133.281Z"
    fill="#93C2DB" />
  <path
    d="M76.3513 36.3497C76.3513 36.3497 85.4772 29.4046 81.2187 17.0114C81.2187 17.0114 75.9866 18.8075 76.8991 24.1959C77.8723 30.183 77.9333 33.895 76.3513 36.3497Z"
    fill="#93C2DB" />
  <path
    d="M375.247 85.3239C375.247 85.3239 371.172 73.2901 383.036 64.3094C383.036 64.3094 386.382 68.8597 382.487 73.6492C378.592 78.439 375.308 82.091 375.247 85.3239Z"
    fill="#93C2DB" />
  <path
    d="M212.628 84.366C212.628 84.366 208.248 73.1103 216.644 68.3208C216.644 68.3208 217.617 70.4162 217.191 73.8888C216.704 77.5407 214.271 78.0795 212.628 84.366Z"
    fill="#93C2DB" />
  <path
    d="M147.106 37.607C147.106 37.607 150.087 29.8837 157.144 31.9792C157.144 31.9193 155.258 39.0439 147.106 37.607Z"
    fill="#93C2DB" />
  <path
    d="M138.771 35.3319C138.771 35.3319 133.356 29.6442 139.075 23.9564C139.136 23.9564 144.064 28.5066 138.771 35.3319Z"
    fill="#93C2DB" />
  <path d="M128.064 37.607C128.064 37.607 120.155 38.8642 117.539 32.937C117.478 32.937 124.961 30.3626 128.064 37.607Z"
    fill="#93C2DB" />
  <path
    d="M253.329 128.67C253.329 128.67 256.31 120.947 263.367 123.043C263.367 123.043 261.482 130.168 253.329 128.67Z"
    fill="#93C2DB" />
  <path
    d="M244.994 126.455C244.994 126.455 239.579 120.768 245.298 115.08C245.298 115.08 250.287 119.63 244.994 126.455Z"
    fill="#93C2DB" />
  <path
    d="M234.287 128.73C234.287 128.73 226.378 129.988 223.762 124.061C223.701 124.001 231.184 121.426 234.287 128.73Z"
    fill="#93C2DB" />
  <path
    d="M334.426 30.4224C334.426 30.4224 331.445 24.1959 336.555 19.2266C336.494 19.2266 340.692 24.4952 334.426 30.4224Z"
    fill="#93C2DB" />
  <path
    d="M329.985 31.3205C329.985 31.3205 322.988 30.9613 320.98 24.136C320.98 24.136 327.673 23.0583 329.985 31.3205Z"
    fill="#93C2DB" />
  <path
    d="M165.783 231.768C165.783 231.768 159.03 235.241 154.406 229.673C154.406 229.673 160.794 225.781 165.783 231.768Z"
    fill="#93C2DB" />
  <path d="M168.947 236.139C168.947 236.139 168.643 243.862 161.646 245C161.646 244.94 161.099 237.636 168.947 236.139Z"
    fill="#93C2DB" />
  <path
    d="M257.405 206.084C257.405 206.084 263.733 203.15 268.782 208.179C268.782 208.119 263.428 212.251 257.405 206.084Z"
    fill="#93C2DB" />
  <path
    d="M256.492 201.713C256.492 201.713 256.858 194.828 263.793 192.852C263.732 192.852 264.888 199.438 256.492 201.713Z"
    fill="#93C2DB" />
  <path
    d="M402.015 119.091C402.015 119.091 409.012 121.187 408.588 128.491C408.588 128.431 400.676 127.653 402.015 119.091Z"
    fill="#93C2DB" />
  <path
    d="M403.293 115.379C403.293 115.379 407.795 109.991 414.791 114.182C414.791 114.182 410.839 119.57 403.293 115.379Z"
    fill="#93C2DB" />
  <path d="M11.0116 45.3304C11.0116 45.3304 7.54388 51.8563 0 48.8027C0 48.8027 3.04189 41.6184 11.0116 45.3304Z"
    fill="#93C2DB" />
  <path
    d="M14.3577 47.7252C14.3577 47.7252 19.7722 53.7124 14.3577 59.1006C14.2968 59.1006 8.57808 53.1136 14.3577 47.7252Z"
    fill="#93C2DB" />
  <path d="M242.439 21.4418C242.439 21.4418 235.625 20.0049 234.713 13C234.652 13 241.466 12.9401 242.439 21.4418Z"
    fill="#93C2DB" />
  <path
    d="M240.431 25.4531C240.431 25.4531 235.868 30.6619 229.176 28.1473C229.237 28.1473 232.401 22.2201 240.431 25.4531Z"
    fill="#93C2DB" />
  <path
    d="M355.78 93.7061C355.78 93.7061 357.057 91.4909 357.483 89.2753C358.274 85.5635 358.639 81.8516 363.203 81.6719C363.264 81.6719 363.386 91.85 355.78 93.7061Z"
    fill="#93C2DB" />
  <path
    d="M328.768 144.417C328.768 144.417 333.148 137.532 340.814 136.753C350.244 135.855 353.407 130.467 355.172 127.234C355.172 127.234 342.213 127.054 337.164 129.808C331.992 132.622 330.532 135.795 328.768 144.417Z"
    fill="#93C2DB" />
  <path
    d="M189.814 107.476C190.179 103.405 190.179 93.2868 189.145 88.7965C187.806 82.8096 186.59 82.9893 185.798 83.2885C185.008 83.5877 185.19 84.426 184.764 84.9049C184.278 85.3839 183.548 85.9826 182.574 84.0669C181.601 82.091 180.871 76.4631 179.046 74.4876C177.16 72.4517 175.943 75.7446 175.091 76.523C174.24 77.3015 174.118 77.8403 171.745 76.2834C169.373 74.7268 162.924 71.4939 160.186 73.5893C157.509 75.685 160.429 78.3192 161.281 78.8581C163.045 79.9956 168.703 81.7319 169.129 82.6897C169.859 84.426 166.027 84.6057 165.296 85.8628C164.566 87.1201 165.54 88.4374 167.304 88.8564C169.068 89.2754 173.814 88.3775 175.821 88.8564C177.768 89.3353 177.342 89.994 176.673 90.413C176.308 90.6526 172.901 92.5087 173.449 94.1252C174.057 96.0409 176.004 96.6396 180.749 96.2206C184.339 95.9214 187.015 98.4358 187.806 100.471C188.597 102.567 189.814 107.476 189.814 107.476Z"
    fill="#93C2DB" />
  <path
    d="M165.844 75.685C165.479 75.4453 165.114 75.2656 164.992 75.2057L164.323 75.625C164.323 75.625 164.445 75.7449 165.418 76.2837C180.871 85.3838 187.259 95.0231 189.936 101.968C189.936 101.369 189.936 100.771 189.936 100.172C186.955 93.2269 180.324 84.1867 165.844 75.685Z"
    fill="#FF8AE2" />
  <path
    d="M268.051 81.4922C268.051 81.4922 267.017 72.2124 268.599 64.7883C269.572 60.298 272.614 54.3706 276.934 49.5811C281.801 44.2526 283.504 43.3545 284.599 43.3545C285.086 43.3545 284.782 44.0729 284.599 44.7914C284.113 46.5277 283.687 47.8448 283.139 50.2397C282.105 55.0891 283.139 57.0052 281.618 59.4596C280.767 60.8967 275.656 62.7528 276.994 64.5487C277.786 65.5668 281.983 61.4356 283.139 62.8124C284.295 64.1297 282.044 70.2964 279.002 72.1525C270.302 77.3613 268.051 81.4922 268.051 81.4922Z"
    fill="#93C2DB" />
  <path
    d="M302.181 141.483V136.753H274.926V144.776H279.854V149.805H274.926H274.804V154.774H269.877H284.843V149.805H306.987V141.483H302.181Z"
    fill="#93C2DB" />
  <path
    d="M183.913 157.229H178.863V145.794H171.259V186.207H176.186V181.237H183.913V176.567V166.928H193.099V163.156H200.339V157.229H183.913Z"
    fill="#93C2DB" />
  <path d="M252.295 175.43H247.245V180.399H252.295V175.43Z" fill="#93C2DB" />
  <path d="M203.806 176.567H198.757V181.537H203.806V176.567Z" fill="#93C2DB" />
  <path d="M208.856 181.536H203.807V186.506H208.856V181.536Z" fill="#93C2DB" />
  <path
    d="M242.195 190.398V185.369H247.245V180.399H242.804V169.563H236.963V180.399H222.788V185.009H218.043V190.398H224.796H242.195Z"
    fill="#93C2DB" />
  <path d="M228.081 141.782H223.031V146.752H228.081V141.782Z" fill="#93C2DB" />
  <path d="M233.13 136.753H228.081V141.722H233.13V136.753Z" fill="#93C2DB" />
  <path d="M161.707 142.082H154.528V145.854H161.707V142.082Z" fill="#93C2DB" />
  <path
    d="M138.954 147.949H133.904V142.98H128.854V147.949H133.904V157.289V166.928H156.475V157.289H138.954V147.949ZM144.064 161.899V166.868H139.015V161.899H144.064Z"
    fill="#93C2DB" />
  <path d="M271.533 177.922V173.731H267.274V177.922H271.533Z" fill="#93C2DB" />
  <path d="M126.725 128.671H122.162V132.981H126.725V128.671Z" fill="#93C2DB" />
  <path d="M197.541 25.9381V21.5675H193.099V25.9381H197.541Z" fill="#93C2DB" />
  <path d="M280.759 31.5661V27.1956H276.318V31.5661H280.759Z" fill="#93C2DB" />
  <path d="M420 92.1901V87.8196H415.56V92.1901H420Z" fill="#93C2DB" />
  <path d="M266.554 228.962H270.995V224.592H266.554V228.962Z" fill="#93C2DB" />
  <path d="M192.1 244.899H196.542V240.528H192.1V244.899Z" fill="#93C2DB" />
  <path d="M286.864 116.641V112.45H282.605V116.641H286.864Z" fill="#93C2DB" />
  <path d="M330.109 123.462V119.271H325.85V123.462H330.109Z" fill="#93C2DB" />
  <path d="M165.1 119.711H169.359V115.52H165.1V119.711Z" fill="#93C2DB" />
  <path d="M158.332 191.939V187.749H154.074V191.939H158.332Z" fill="#93C2DB" />
  <path d="M284.843 149.805V154.774H278.394V190.398H286.181V185.728H290.927V149.805H284.843Z" fill="#9C4668" />
  <path
    d="M233.131 136.753V141.782H228.081V146.752H223.032H217.982V164.533V159.624H223.093V162.019H229.42V159.624V149.805H246.272V145.854H250.713V136.753H233.131Z"
    fill="#9C4668" />
  <path d="M169.383 123.926H173.642V119.735H169.383V123.926Z" fill="#FF8AE2" />
  <path
    d="M198.635 141.244V136.753H181.114V132.981H168.581V145.794H178.863V157.229H183.913V149.027H189.084V141.244H198.635Z"
    fill="#9C4668" />
  <path
    d="M133.904 171.898V166.928V157.229V147.949H128.854V142.98H133.904V137.951H138.953V136.753V133.041H126.725V138.13V138.669V187.644H138.953V171.898H133.904Z"
    fill="#9C4668" />
  <path d="M126.725 187.643H122.162V191.954H126.725V187.643Z" fill="#9C4668" />
  <path d="M306.866 136.753H302.121V141.423H306.866V136.753Z" fill="#9C4668" />
  <path d="M311.611 141.483H306.866V149.805H311.611V141.483Z" fill="#9C4668" />
  <path d="M311.611 132.083H306.866V136.753H311.611V132.083Z" fill="#9C4668" />
  <path d="M247.245 185.368H242.196V190.338H247.245V185.368Z" fill="#9C4668" />
  <path d="M183.913 186.207H176.186V190.398H183.913V186.207Z" fill="#9C4668" />
  <path d="M4.44142 63.4922V59.1213H0.000244141V63.4922H4.44142Z" fill="#FF8AE2" />
  <path d="M128.945 20.7266V16.3561H124.504V20.7266H128.945Z" fill="#FF8AE2" />
  <path d="M413.366 41.8261V37.4556H408.926V41.8261H413.366Z" fill="#FF8AE2" />
  <path d="M373.703 139.777H378.143V135.407H373.703V139.777Z" fill="#FF8AE2" />
  <path d="M378.043 135.566H382.483V131.195H378.043V135.566Z" fill="#FF8AE2" />
  <path d="M104.37 171.728H108.811V167.358H104.37V171.728Z" fill="#FF8AE2" />
  <path d="M153.434 213.627H157.875V209.256H153.434V213.627Z" fill="#FF8AE2" />
  <path d="M213.601 194.741H218.042V190.371H213.601V194.741Z" fill="#FF8AE2" />
  <path d="M290.728 127.898V123.708H286.469V127.898H290.728Z" fill="#FF8AE2" />
  <path d="M325.789 127.677V123.487H321.531V127.677H325.789Z" fill="#FF8AE2" />
  <path d="M209.83 136.753H198.636V141.243H189.084V149.027H204.719V143.878H209.83V136.753Z" fill="#FF8AE2" />
  <path d="M214.392 132.502H209.83V136.813H214.392V132.502Z" fill="#FF8AE2" />
  <path d="M354.867 24.3156H350.122V28.9855H354.867V24.3156Z" fill="#FF8AE2" />
  <path d="M295.672 190.398H290.926V195.067H295.672V190.398Z" fill="#FF8AE2" />
  <path d="M290.927 185.728H286.181V190.398H290.927V185.728Z" fill="#FF8AE2" />
  <path
    d="M252.295 175.43V166.209H248.949V162.019H223.093V159.624H217.982V164.593H223.032V169.562H236.964H239.641H242.804V180.399H247.245V175.43H252.295Z"
    fill="#FF8AE2" />
  <path d="M228.081 136.753H223.031V141.722H228.081V136.753Z" fill="#FF8AE2" />
  <path d="M223.032 141.782H217.982V146.752H223.032V141.782Z" fill="#FF8AE2" />
  <path d="M200.278 163.156H193.099V166.928H200.278V163.156Z" fill="#FF8AE2" />
  <path d="M122.163 191.954H117.417V196.624H122.163V191.954Z" fill="#FF8AE2" />
  <path d="M144.003 161.899H138.954V166.868H144.003V161.899Z" fill="#FF8AE2" />
  <path d="M138.953 166.928H133.904V171.897H138.953V166.928Z" fill="#FF8AE2" />
  <path
    d="M149.479 136.753V132.981H144.064H138.953V137.951H133.904V147.949H138.953V145.854H154.528V142.082H161.768V136.753H149.479Z"
    fill="#FF8AE2" />
  <path d="M284.904 139.807H279.854V144.776H284.904V139.807Z" fill="#FF8AE2" />
  <path d="M274.926 144.776V136.753H258.318V149.805H269.755V154.774H274.805V149.805H274.926H279.854V144.776H274.926Z"
    fill="#FF8AE2" />
  <path
    d="M203.807 186.506V181.537H198.757V176.567H183.913V181.237H176.186V186.207H183.913V187.643V190.398H208.917V186.506H203.807Z"
    fill="#FF8AE2" />
  <path d="M252.295 180.399H247.245V185.368H252.295V180.399Z" fill="#9C4668" />
  <path d="M276.256 35.9693V31.5988H271.815V35.9693H276.256Z" fill="#9C4668" />
  <path d="M21.1135 76.3024V71.9319H16.6724V76.3024H21.1135Z" fill="#9C4668" />
  <path d="M138.982 121.755V117.385H134.541V121.755H138.982Z" fill="#9C4668" />
  <path d="M89.3468 120.393V116.023H84.9055V120.393H89.3468Z" fill="#9C4668" />
  <path d="M415.559 96.5934V92.2229H411.119V96.5934H415.559Z" fill="#9C4668" />
  <path d="M262.143 224.561H266.585V220.191H262.143V224.561Z" fill="#9C4668" />
  <path d="M307.035 172.652H311.476V168.282H307.035V172.652Z" fill="#9C4668" />
  <path d="M187.626 240.556H192.067V236.185H187.626V240.556Z" fill="#FF8AE2" />
  <path d="M267.213 182.077V177.886H262.955V182.077H267.213Z" fill="#9C4668" />
  <path d="M198.392 124.3H193.647V128.97H198.392V124.3Z" fill="#9C4668" />
  <path d="M154.074 196.155V191.964H149.815V196.155H154.074Z" fill="#9C4668" />
  <path
    d="M228.933 227.458L226.013 224.584L221.146 229.373H218.104V218.537L220.72 215.962L221.693 215.005L222.727 214.047L224.735 212.071V209.077V204.168L220.416 199.977L214.453 205.844L215.488 206.802L218.469 203.869L220.72 206.144V213.987L214.636 219.974L214.149 220.453V230.272H218.104H225.222H226.013L228.933 227.458Z"
    fill="#9C4668" />
  <path
    d="M224.735 209.077V212.071L222.727 214.047L221.693 215.005L220.72 215.962L218.104 218.537V229.373H219.746V218.537L222.362 215.962L223.275 215.005L224.309 214.047L226.317 212.071V209.077V204.168L221.997 199.977H220.416L224.735 204.168V209.077Z"
    fill="#FF8AE2" />
  <path d="M227.655 224.584H226.012L228.933 227.458L226.012 230.272H227.655L230.515 227.458L227.655 224.584Z"
    fill="#FF8AE2" />
  <path d="M219.26 204.707L218.469 203.869L215.488 206.802H217.069L219.26 204.707Z" fill="#FF8AE2" />
  <path
    d="M244.872 217.28V223.566H240.492V221.77V217.04H237.389V208H231.792V221.77H234.652V230.631H238.91H240.492H247.975V226.38V223.566V217.28H244.872Z"
    fill="#93C2DB" />
  <path
    d="M250.287 207.94V204.228H246.272V208H244.872V217.28H247.975V223.566V226.081H250.287V221.77H252.234V207.94H250.287Z"
    fill="#FF8AE2" />
  <path
    d="M247.488 200.156H237.997V202.431H234.651V207.999H237.389V217.04H240.492V207.999H246.271V204.228H247.488V200.156Z"
    fill="#9C4668" />
  <path
    d="M186.347 227.458L183.426 224.584L178.559 229.373H175.517V218.537L178.134 215.962L179.107 215.005L180.141 214.047L182.149 212.071V209.077V204.168L177.829 199.977L171.867 205.844L172.902 206.802L175.883 203.869L178.134 206.144V213.987L172.05 219.974L171.563 220.453V230.272H175.517H182.636H183.426L186.347 227.458Z"
    fill="#9C4668" />
  <path
    d="M182.148 209.077V212.071L180.141 214.047L179.107 215.005L178.133 215.962L175.517 218.537V229.373H177.16V218.537L179.776 215.962L180.688 215.005L181.722 214.047L183.73 212.071V209.077V204.168L179.411 199.977H177.829L182.148 204.168V209.077Z"
    fill="#FF8AE2" />
  <path d="M176.673 204.707L175.882 203.869L172.901 206.802H174.483L176.673 204.707Z" fill="#FF8AE2" />
  <path d="M185.068 224.584H183.426L186.346 227.458L183.426 230.272H185.068L187.928 227.458L185.068 224.584Z"
    fill="#FF8AE2" />
  <path
    d="M202.286 217.28V223.566H197.906V221.77V217.04H194.803V208H189.206V221.77H192.065V230.631H196.324H197.906H205.388V226.38V223.566V217.28H202.286Z"
    fill="#93C2DB" />
  <path d="M207.7 207.94V204.228H203.685V208H202.286V217.28H205.388V223.566V226.081H207.7V221.77H209.647V207.94H207.7Z"
    fill="#FF8AE2" />
  <path
    d="M204.902 200.156H195.411V202.431H192.065V207.999H194.803V217.04H197.905V207.999H203.685V204.228H204.902V200.156Z"
    fill="#9C4668" />
  <path
    d="M181.601 143.339C181.769 143.339 181.905 143.205 181.905 143.04C181.905 142.874 181.769 142.74 181.601 142.74C181.433 142.74 181.297 142.874 181.297 143.04C181.297 143.205 181.433 143.339 181.601 143.339Z"
    fill="#FF8AE2" />
  <path
    d="M180.931 151.182C181.099 151.182 181.236 151.048 181.236 150.883C181.236 150.718 181.099 150.583 180.931 150.583C180.763 150.583 180.627 150.718 180.627 150.883C180.627 151.048 180.763 151.182 180.931 151.182Z"
    fill="#FF8AE2" />
  <path
    d="M182.27 155.433C182.438 155.433 182.574 155.299 182.574 155.134C182.574 154.968 182.438 154.834 182.27 154.834C182.102 154.834 181.966 154.968 181.966 155.134C181.966 155.299 182.102 155.433 182.27 155.433Z"
    fill="#FF8AE2" />
  <path
    d="M180.689 147.59C180.857 147.59 180.993 147.456 180.993 147.29C180.993 147.125 180.857 146.991 180.689 146.991C180.521 146.991 180.384 147.125 180.384 147.29C180.384 147.456 180.521 147.59 180.689 147.59Z"
    fill="#FF8AE2" />
  <path
    d="M183.426 140.405C183.594 140.405 183.731 140.271 183.731 140.106C183.731 139.941 183.594 139.807 183.426 139.807C183.258 139.807 183.122 139.941 183.122 140.106C183.122 140.271 183.258 140.405 183.426 140.405Z"
    fill="#FF8AE2" />
  <path
    d="M177.464 137.112C177.632 137.112 177.768 136.978 177.768 136.813C177.768 136.648 177.632 136.514 177.464 136.514C177.296 136.514 177.16 136.648 177.16 136.813C177.16 136.978 177.296 137.112 177.464 137.112Z"
    fill="#FF8AE2" />
  <path
    d="M186.103 147.23C186.271 147.23 186.407 147.097 186.407 146.931C186.407 146.766 186.271 146.632 186.103 146.632C185.935 146.632 185.799 146.766 185.799 146.931C185.799 147.097 185.935 147.23 186.103 147.23Z"
    fill="#FF8AE2" />
  <path
    d="M190.423 138.909C190.591 138.909 190.727 138.775 190.727 138.609C190.727 138.444 190.591 138.31 190.423 138.31C190.255 138.31 190.119 138.444 190.119 138.609C190.119 138.775 190.255 138.909 190.423 138.909Z"
    fill="#FF8AE2" />
  <path
    d="M196.324 140.046C196.492 140.046 196.628 139.912 196.628 139.747C196.628 139.582 196.492 139.447 196.324 139.447C196.156 139.447 196.02 139.582 196.02 139.747C196.02 139.912 196.156 140.046 196.324 140.046Z"
    fill="#FF8AE2" />
  <path
    d="M171.259 141.543C171.427 141.543 171.563 141.409 171.563 141.244C171.563 141.078 171.427 140.944 171.259 140.944C171.091 140.944 170.954 141.078 170.954 141.244C170.954 141.409 171.091 141.543 171.259 141.543Z"
    fill="#FF8AE2" />
  <path
    d="M175.943 144.177C176.111 144.177 176.247 144.043 176.247 143.878C176.247 143.712 176.111 143.578 175.943 143.578C175.775 143.578 175.639 143.712 175.639 143.878C175.639 144.043 175.775 144.177 175.943 144.177Z"
    fill="#FF8AE2" />
  <path
    d="M175.274 140.286C175.442 140.286 175.578 140.151 175.578 139.986C175.578 139.821 175.442 139.687 175.274 139.687C175.106 139.687 174.97 139.821 174.97 139.986C174.97 140.151 175.106 140.286 175.274 140.286Z"
    fill="#FF8AE2" />
  <path
    d="M170.833 136.095C171.001 136.095 171.137 135.961 171.137 135.795C171.137 135.63 171.001 135.496 170.833 135.496C170.665 135.496 170.529 135.63 170.529 135.795C170.529 135.961 170.665 136.095 170.833 136.095Z"
    fill="#FF8AE2" />
  <path
    d="M185.798 142.261C185.966 142.261 186.103 142.127 186.103 141.962C186.103 141.797 185.966 141.662 185.798 141.662C185.63 141.662 185.494 141.797 185.494 141.962C185.494 142.127 185.63 142.261 185.798 142.261Z"
    fill="#FF8AE2" />
  <path
    d="M220.537 151.841C220.705 151.841 220.841 151.707 220.841 151.541C220.841 151.376 220.705 151.242 220.537 151.242C220.369 151.242 220.233 151.376 220.233 151.541C220.233 151.707 220.369 151.841 220.537 151.841Z"
    fill="#FF8AE2" />
  <path
    d="M237.572 143.1C237.74 143.1 237.876 142.965 237.876 142.8C237.876 142.635 237.74 142.501 237.572 142.501C237.404 142.501 237.268 142.635 237.268 142.8C237.268 142.965 237.404 143.1 237.572 143.1Z"
    fill="#FF8AE2" />
  <path
    d="M226.5 156.87C226.668 156.87 226.804 156.736 226.804 156.571C226.804 156.405 226.668 156.271 226.5 156.271C226.332 156.271 226.195 156.405 226.195 156.571C226.195 156.736 226.332 156.87 226.5 156.87Z"
    fill="#FF8AE2" />
  <path
    d="M224.005 154.296C224.173 154.296 224.31 154.161 224.31 153.996C224.31 153.831 224.173 153.697 224.005 153.697C223.837 153.697 223.701 153.831 223.701 153.996C223.701 154.161 223.837 154.296 224.005 154.296Z"
    fill="#FF8AE2" />
  <path
    d="M227.169 160.761C227.337 160.761 227.473 160.627 227.473 160.462C227.473 160.297 227.337 160.163 227.169 160.163C227.001 160.163 226.865 160.297 226.865 160.462C226.865 160.627 227.001 160.761 227.169 160.761Z"
    fill="#FF8AE2" />
  <path
    d="M242.865 146.452C243.033 146.452 243.169 146.318 243.169 146.153C243.169 145.988 243.033 145.854 242.865 145.854C242.697 145.854 242.561 145.988 242.561 146.153C242.561 146.318 242.697 146.452 242.865 146.452Z"
    fill="#FF8AE2" />
  <path
    d="M220.842 157.888C221.01 157.888 221.147 157.754 221.147 157.588C221.147 157.423 221.01 157.289 220.842 157.289C220.674 157.289 220.538 157.423 220.538 157.588C220.538 157.754 220.674 157.888 220.842 157.888Z"
    fill="#FF8AE2" />
  <path
    d="M237.267 147.59C237.435 147.59 237.572 147.456 237.572 147.29C237.572 147.125 237.435 146.991 237.267 146.991C237.099 146.991 236.963 147.125 236.963 147.29C236.963 147.456 237.099 147.59 237.267 147.59Z"
    fill="#FF8AE2" />
  <path
    d="M244.629 141.603C244.797 141.603 244.933 141.469 244.933 141.303C244.933 141.138 244.797 141.004 244.629 141.004C244.461 141.004 244.325 141.138 244.325 141.303C244.325 141.469 244.461 141.603 244.629 141.603Z"
    fill="#FF8AE2" />
  <path
    d="M247.367 139.507C247.535 139.507 247.671 139.373 247.671 139.208C247.671 139.043 247.535 138.908 247.367 138.908C247.199 138.908 247.062 139.043 247.062 139.208C247.062 139.373 247.199 139.507 247.367 139.507Z"
    fill="#FF8AE2" />
  <path
    d="M232.096 144.177C232.264 144.177 232.4 144.043 232.4 143.878C232.4 143.712 232.264 143.578 232.096 143.578C231.928 143.578 231.792 143.712 231.792 143.878C231.792 144.043 231.928 144.177 232.096 144.177Z"
    fill="#FF8AE2" />
  <path
    d="M222.788 148.847C222.956 148.847 223.092 148.713 223.092 148.548C223.092 148.382 222.956 148.249 222.788 148.249C222.62 148.249 222.484 148.382 222.484 148.548C222.484 148.713 222.62 148.847 222.788 148.847Z"
    fill="#FF8AE2" />
  <path
    d="M240.188 140.046C240.356 140.046 240.492 139.912 240.492 139.747C240.492 139.582 240.356 139.447 240.188 139.447C240.02 139.447 239.884 139.582 239.884 139.747C239.884 139.912 240.02 140.046 240.188 140.046Z"
    fill="#FF8AE2" />
  <path
    d="M234.652 138.909C234.82 138.909 234.956 138.775 234.956 138.609C234.956 138.444 234.82 138.31 234.652 138.31C234.484 138.31 234.347 138.444 234.347 138.609C234.347 138.775 234.484 138.909 234.652 138.909Z"
    fill="#FF8AE2" />
  <path
    d="M226.804 151.062C226.972 151.062 227.108 150.929 227.108 150.763C227.108 150.598 226.972 150.464 226.804 150.464C226.636 150.464 226.5 150.598 226.5 150.763C226.5 150.929 226.636 151.062 226.804 151.062Z"
    fill="#FF8AE2" />
  <path
    d="M288.007 174.053C288.175 174.053 288.311 173.919 288.311 173.753C288.311 173.588 288.175 173.454 288.007 173.454C287.839 173.454 287.702 173.588 287.702 173.753C287.702 173.919 287.839 174.053 288.007 174.053Z"
    fill="#FF8AE2" />
  <path
    d="M287.58 163.036C287.748 163.036 287.884 162.903 287.884 162.737C287.884 162.572 287.748 162.438 287.58 162.438C287.412 162.438 287.276 162.572 287.276 162.737C287.276 162.903 287.412 163.036 287.58 163.036Z"
    fill="#FF8AE2" />
  <path
    d="M287.641 154.655C287.809 154.655 287.946 154.521 287.946 154.355C287.946 154.19 287.809 154.056 287.641 154.056C287.473 154.056 287.337 154.19 287.337 154.355C287.337 154.521 287.473 154.655 287.641 154.655Z"
    fill="#FF8AE2" />
  <path
    d="M286.425 168.365C286.593 168.365 286.729 168.231 286.729 168.066C286.729 167.9 286.593 167.766 286.425 167.766C286.257 167.766 286.12 167.9 286.12 168.066C286.12 168.231 286.257 168.365 286.425 168.365Z"
    fill="#FF8AE2" />
  <path
    d="M283.565 182.854C283.733 182.854 283.869 182.72 283.869 182.554C283.869 182.389 283.733 182.255 283.565 182.255C283.397 182.255 283.261 182.389 283.261 182.554C283.261 182.72 283.397 182.854 283.565 182.854Z"
    fill="#FF8AE2" />
  <path
    d="M282.105 187.643C282.273 187.643 282.409 187.509 282.409 187.344C282.409 187.179 282.273 187.045 282.105 187.045C281.937 187.045 281.801 187.179 281.801 187.344C281.801 187.509 281.937 187.643 282.105 187.643Z"
    fill="#FF8AE2" />
  <path
    d="M283.565 158.965C283.733 158.965 283.869 158.831 283.869 158.666C283.869 158.501 283.733 158.366 283.565 158.366C283.397 158.366 283.261 158.501 283.261 158.666C283.261 158.831 283.397 158.965 283.565 158.965Z"
    fill="#FF8AE2" />
  <path
    d="M288.553 182.015C288.721 182.015 288.858 181.882 288.858 181.716C288.858 181.551 288.721 181.417 288.553 181.417C288.385 181.417 288.249 181.551 288.249 181.716C288.249 181.882 288.385 182.015 288.553 182.015Z"
    fill="#FF8AE2" />
  <path
    d="M283.93 173.873C284.098 173.873 284.234 173.739 284.234 173.574C284.234 173.408 284.098 173.274 283.93 173.274C283.762 173.274 283.626 173.408 283.626 173.574C283.626 173.739 283.762 173.873 283.93 173.873Z"
    fill="#FF8AE2" />
  <path
    d="M281.375 178.902C281.543 178.902 281.679 178.768 281.679 178.603C281.679 178.438 281.543 178.304 281.375 178.304C281.207 178.304 281.071 178.438 281.071 178.603C281.071 178.768 281.207 178.902 281.375 178.902Z"
    fill="#FF8AE2" />
  <path
    d="M280.584 164.114C280.752 164.114 280.888 163.98 280.888 163.815C280.888 163.65 280.752 163.515 280.584 163.515C280.416 163.515 280.28 163.65 280.28 163.815C280.28 163.98 280.416 164.114 280.584 164.114Z"
    fill="#FF8AE2" />
  <path
    d="M128.429 186.147C128.597 186.147 128.733 186.013 128.733 185.847C128.733 185.682 128.597 185.548 128.429 185.548C128.261 185.548 128.125 185.682 128.125 185.847C128.125 186.013 128.261 186.147 128.429 186.147Z"
    fill="#FF8AE2" />
  <path
    d="M137.494 184.53C137.662 184.53 137.798 184.396 137.798 184.231C137.798 184.066 137.662 183.932 137.494 183.932C137.326 183.932 137.19 184.066 137.19 184.231C137.19 184.396 137.326 184.53 137.494 184.53Z"
    fill="#FF8AE2" />
  <path
    d="M128.733 152.32C128.901 152.32 129.038 152.186 129.038 152.02C129.038 151.855 128.901 151.721 128.733 151.721C128.565 151.721 128.429 151.855 128.429 152.02C128.429 152.186 128.565 152.32 128.733 152.32Z"
    fill="#FF8AE2" />
  <path
    d="M131.592 141.064C131.76 141.064 131.897 140.93 131.897 140.765C131.897 140.599 131.76 140.465 131.592 140.465C131.424 140.465 131.288 140.599 131.288 140.765C131.288 140.93 131.424 141.064 131.592 141.064Z"
    fill="#FF8AE2" />
  <path
    d="M136.763 135.735C136.931 135.735 137.067 135.602 137.067 135.436C137.067 135.271 136.931 135.137 136.763 135.137C136.595 135.137 136.459 135.271 136.459 135.436C136.459 135.602 136.595 135.735 136.763 135.735Z"
    fill="#FF8AE2" />
  <path
    d="M129.645 170.401C129.813 170.401 129.949 170.267 129.949 170.101C129.949 169.936 129.813 169.802 129.645 169.802C129.477 169.802 129.341 169.936 129.341 170.101C129.341 170.267 129.477 170.401 129.645 170.401Z"
    fill="#FF8AE2" />
  <path
    d="M129.402 182.435C129.57 182.435 129.706 182.301 129.706 182.135C129.706 181.97 129.57 181.836 129.402 181.836C129.234 181.836 129.098 181.97 129.098 182.135C129.098 182.301 129.234 182.435 129.402 182.435Z"
    fill="#FF8AE2" />
  <path
    d="M130.558 161.36C130.726 161.36 130.862 161.226 130.862 161.061C130.862 160.896 130.726 160.761 130.558 160.761C130.39 160.761 130.254 160.896 130.254 161.061C130.254 161.226 130.39 161.36 130.558 161.36Z"
    fill="#FF8AE2" />
  <path
    d="M133.965 179.8C134.133 179.8 134.269 179.666 134.269 179.501C134.269 179.336 134.133 179.202 133.965 179.202C133.797 179.202 133.661 179.336 133.661 179.501C133.661 179.666 133.797 179.8 133.965 179.8Z"
    fill="#FF8AE2" />
  <path
    d="M132.201 184.051C132.369 184.051 132.505 183.917 132.505 183.752C132.505 183.586 132.369 183.453 132.201 183.453C132.033 183.453 131.896 183.586 131.896 183.752C131.896 183.917 132.033 184.051 132.201 184.051Z"
    fill="#FF8AE2" />
  <path
    d="M133.722 135.257C133.89 135.257 134.026 135.122 134.026 134.957C134.026 134.792 133.89 134.658 133.722 134.658C133.554 134.658 133.417 134.792 133.417 134.957C133.417 135.122 133.554 135.257 133.722 135.257Z"
    fill="#FF8AE2" />
  <path
    d="M132.14 173.095C132.308 173.095 132.444 172.961 132.444 172.796C132.444 172.63 132.308 172.496 132.14 172.496C131.972 172.496 131.836 172.63 131.836 172.796C131.836 172.961 131.972 173.095 132.14 173.095Z"
    fill="#FF8AE2" />
  <path
    d="M136.398 175.31C136.566 175.31 136.702 175.176 136.702 175.011C136.702 174.845 136.566 174.711 136.398 174.711C136.23 174.711 136.094 174.845 136.094 175.011C136.094 175.176 136.23 175.31 136.398 175.31Z"
    fill="#FF8AE2" />
  <path
    d="M128.733 136.214C128.901 136.214 129.038 136.08 129.038 135.915C129.038 135.75 128.901 135.616 128.733 135.616C128.565 135.616 128.429 135.75 128.429 135.915C128.429 136.08 128.565 136.214 128.733 136.214Z"
    fill="#FF8AE2" />
  <path
    d="M130.01 166.329C130.178 166.329 130.315 166.195 130.315 166.03C130.315 165.865 130.178 165.731 130.01 165.731C129.842 165.731 129.706 165.865 129.706 166.03C129.706 166.195 129.842 166.329 130.01 166.329Z"
    fill="#FF8AE2" />
  <path
    d="M236.112 204.587C236.314 204.587 236.477 204.426 236.477 204.228C236.477 204.029 236.314 203.869 236.112 203.869C235.91 203.869 235.747 204.029 235.747 204.228C235.747 204.426 235.91 204.587 236.112 204.587Z"
    fill="#FF8AE2" />
  <path
    d="M243.169 201.893C243.37 201.893 243.534 201.732 243.534 201.534C243.534 201.335 243.37 201.174 243.169 201.174C242.967 201.174 242.803 201.335 242.803 201.534C242.803 201.732 242.967 201.893 243.169 201.893Z"
    fill="#FF8AE2" />
  <path
    d="M240.431 205.186C240.633 205.186 240.796 205.025 240.796 204.827C240.796 204.628 240.633 204.467 240.431 204.467C240.23 204.467 240.066 204.628 240.066 204.827C240.066 205.025 240.23 205.186 240.431 205.186Z"
    fill="#FF8AE2" />
  <path
    d="M244.508 206.264C244.709 206.264 244.873 206.103 244.873 205.904C244.873 205.706 244.709 205.545 244.508 205.545C244.306 205.545 244.143 205.706 244.143 205.904C244.143 206.103 244.306 206.264 244.508 206.264Z"
    fill="#FF8AE2" />
  <path
    d="M239.275 207.521C239.477 207.521 239.641 207.36 239.641 207.161C239.641 206.963 239.477 206.802 239.275 206.802C239.074 206.802 238.91 206.963 238.91 207.161C238.91 207.36 239.074 207.521 239.275 207.521Z"
    fill="#FF8AE2" />
  <path
    d="M238.91 215.903C239.112 215.903 239.275 215.742 239.275 215.543C239.275 215.345 239.112 215.184 238.91 215.184C238.709 215.184 238.545 215.345 238.545 215.543C238.545 215.742 238.709 215.903 238.91 215.903Z"
    fill="#FF8AE2" />
  <path
    d="M238.363 211.412C238.564 211.412 238.728 211.251 238.728 211.053C238.728 210.855 238.564 210.694 238.363 210.694C238.161 210.694 237.998 210.855 237.998 211.053C237.998 211.251 238.161 211.412 238.363 211.412Z"
    fill="#FF8AE2" />
  <path
    d="M193.525 204.587C193.727 204.587 193.89 204.426 193.89 204.228C193.89 204.029 193.727 203.869 193.525 203.869C193.324 203.869 193.16 204.029 193.16 204.228C193.16 204.426 193.324 204.587 193.525 204.587Z"
    fill="#FF8AE2" />
  <path
    d="M195.776 206.264C195.978 206.264 196.141 206.103 196.141 205.904C196.141 205.706 195.978 205.545 195.776 205.545C195.575 205.545 195.411 205.706 195.411 205.904C195.411 206.103 195.575 206.264 195.776 206.264Z"
    fill="#FF8AE2" />
  <path
    d="M202.286 202.252C202.488 202.252 202.651 202.091 202.651 201.893C202.651 201.694 202.488 201.534 202.286 201.534C202.084 201.534 201.921 201.694 201.921 201.893C201.921 202.091 202.084 202.252 202.286 202.252Z"
    fill="#FF8AE2" />
  <path
    d="M200.218 205.545C200.419 205.545 200.583 205.384 200.583 205.186C200.583 204.987 200.419 204.826 200.218 204.826C200.016 204.826 199.853 204.987 199.853 205.186C199.853 205.384 200.016 205.545 200.218 205.545Z"
    fill="#FF8AE2" />
  <path
    d="M196.324 209.796C196.526 209.796 196.689 209.635 196.689 209.437C196.689 209.238 196.526 209.077 196.324 209.077C196.122 209.077 195.959 209.238 195.959 209.437C195.959 209.635 196.122 209.796 196.324 209.796Z"
    fill="#FF8AE2" />
  <path
    d="M196.689 203.809C196.891 203.809 197.054 203.648 197.054 203.449C197.054 203.251 196.891 203.09 196.689 203.09C196.487 203.09 196.324 203.251 196.324 203.449C196.324 203.648 196.487 203.809 196.689 203.809Z"
    fill="#FF8AE2" />
  <path
    d="M196.141 214.765C196.343 214.765 196.507 214.604 196.507 214.406C196.507 214.207 196.343 214.047 196.141 214.047C195.94 214.047 195.776 214.207 195.776 214.406C195.776 214.604 195.94 214.765 196.141 214.765Z"
    fill="#FF8AE2" />
  <path
    d="M380.419 41.7379C380.419 40.8997 378.775 40.5405 378.474 40.0017C378.291 39.7023 378.836 39.4628 379.263 39.5227C379.569 39.5227 382.182 40.0017 384.009 40.0017C390.216 40.1813 391.856 38.6845 391.795 37.8463C391.734 37.0081 389.361 36.589 388.999 36.0502C388.694 35.5113 389.117 34.9725 391.25 34.6133C393.439 34.254 397.209 34.0745 399.703 32.9369C402.198 31.7993 401.653 30.4822 398.486 29.5243C397.331 29.0453 398.063 28.3268 400.253 26.6505C402.442 24.974 407.856 19.7054 406.154 16.9514C404.693 14.9157 402.015 16.1132 400.131 18.029C398.67 19.4659 395.812 22.3996 394.778 22.4595C392.89 22.6391 394.595 19.8252 393.622 18.8074C392.646 17.7895 390.578 19.5857 389.728 21.0825C388.877 22.5792 388.205 24.974 387.294 26.7103C386.321 28.6262 385.348 27.9077 385.043 27.2492C384.799 26.5906 385.226 23.8964 383.338 23.597C381.697 23.3575 379.752 27.4887 378.108 29.8236C377.497 30.7217 376.708 31.5599 375.857 32.2783C375.369 32.6375 375.124 32.5178 375.006 32.2783C374.762 31.9191 375.006 29.644 373.362 29.165C371.901 28.8058 370.501 31.2007 368.616 33.4159C367.094 35.212 364.965 36.1699 362.654 36.8884C359.491 37.8463 354.685 38.0858 354.685 38.0858C354.685 38.0858 357.057 39.1036 359.064 39.7023C363.932 41.1392 366.243 41.9175 371.718 42.4564C375.857 42.8755 380.175 43.2946 380.419 41.7379C380.419 41.7978 380.419 41.7379 380.419 41.7379Z"
    fill="#93C2DB" />
  <path
    d="M127.881 88.1379C130.497 82.6897 129.645 75.8644 126.725 70.4761C123.866 65.2074 120.155 61.4356 114.192 58.6816C112.733 58.0229 108.778 56.8854 108.778 56.8854C108.778 56.8854 108.839 60.1782 108.96 61.1361C109.508 65.1475 110.116 69.3386 112.611 72.0926C114.923 74.6669 117.904 75.9243 121.006 77.6007C129.585 82.3306 127.881 88.1379 127.881 88.1379Z"
    fill="#93C2DB" />
  <path
    d="M83.4087 126.156C83.4087 126.156 99.3479 125.378 105.31 136.933C111.698 149.266 117.964 153.457 117.964 153.457C117.964 153.457 105.006 155.193 98.8615 147.889C92.6559 140.585 95.3934 133.221 83.4087 126.156Z"
    fill="#93C2DB" />
  <path
    d="M378.108 96.8792C378.108 96.8792 375.006 88.7965 378.959 83.4681C382.064 79.2171 389.423 78.1994 395.996 78.9179C400.436 79.3968 406.094 76.5829 406.094 76.5829C406.094 76.5829 406.094 83.0488 398.914 85.0846C394.901 86.2222 391.372 84.4859 385.833 88.1378C378.596 92.8678 378.108 96.8792 378.108 96.8792Z"
    fill="#93C2DB" />
  <path
    d="M214.758 100.891C212.142 95.4421 213.054 88.6767 215.914 83.2285C221.146 73.35 233.861 71.434 233.861 71.434C233.861 71.434 232.766 79.5167 228.811 84.1265C226.56 86.761 222.606 87.7188 219.868 89.8741C213.358 94.9632 214.758 100.891 214.758 100.891Z"
    fill="#93C2DB" />
  <path
    d="M345.802 112.625C345.316 112.266 325.118 105.141 343.308 90.5327L355.78 80.6538C355.78 80.6538 356.205 91.6104 348.358 98.7948C340.57 105.8 345.802 112.625 345.802 112.625Z"
    fill="#93C2DB" />
  <path
    d="M144.672 112.625C144.185 112.266 123.987 105.141 142.178 90.5327L154.65 80.6538C154.65 80.6538 155.075 91.6104 147.227 98.7948C139.501 105.8 144.672 112.625 144.672 112.625Z"
    fill="#93C2DB" />
  <path
    d="M323.901 155.193C323.901 155.193 330.958 144.476 343.004 143.578C353.103 142.8 365.698 148.548 365.698 148.548C365.698 148.548 355.841 156.63 343.369 155.313C334.365 154.355 331.749 151.422 323.901 155.193Z"
    fill="#93C2DB" />
  <path
    d="M77.6899 51.6764C76.1083 51.6764 75.9866 55.987 75.8039 60.0583C75.6215 65.4469 76.1083 67.7819 76.8991 72.7512C77.2032 74.7867 77.9333 77.2415 77.9333 77.2415C77.9333 77.2415 78.7852 72.5715 80.1844 69.5778C81.2186 67.4225 82.4352 65.4469 84.443 64.1896C86.8764 62.6929 89.4926 61.6153 89.371 60.1782C89.0665 58.5018 86.7547 58.4419 86.4507 58.1427C86.268 57.963 86.1463 57.7233 86.5724 57.3043C87.4239 56.5858 88.3974 55.9275 89.371 55.4482C91.9261 54.1313 96.3674 52.814 96.3063 51.1975C96.2457 49.2815 93.5078 49.4013 92.8993 49.0422C92.2302 48.6828 91.6828 47.6651 93.7512 46.9467C95.6372 46.2881 98.1314 45.9888 99.774 45.3302C101.417 44.7315 103.485 42.9952 102.634 41.8577C101.721 40.7201 98.6792 42.0373 99.1049 40.1813C99.3483 39.1635 102.634 36.7686 104.337 35.5712C106.527 34.0146 108.109 31.5 106.223 29.8236C103.668 27.788 97.645 32.3382 95.6372 34.2541C93.6295 36.1699 92.8387 36.7686 92.4736 35.6311C91.9261 32.458 90.6485 31.7395 89.1882 34.0146C87.7283 36.2897 86.9981 39.9418 86.3897 42.0373C85.7816 44.1328 85.1121 44.4321 84.6257 44.0729C84.1389 43.7137 84.0172 41.259 83.1654 41.1392C82.3745 40.9596 80.6712 42.3366 79.9411 48.4435C79.7583 50.1798 79.8194 52.814 79.8194 53.1135C79.7583 53.5925 79.515 54.0714 79.2109 53.8317C78.6635 53.4726 78.5418 51.7364 77.6899 51.6764Z"
    fill="#93C2DB" />
  <path
    d="M295.611 95.8012C296.402 95.6218 296.402 93.9455 296.889 93.586C297.193 93.3467 297.436 93.8256 297.558 94.2446C297.619 94.5442 297.74 97.1784 298.045 98.9147C299.201 104.962 300.965 106.159 301.756 105.919C302.547 105.68 302.486 103.285 302.972 102.866C303.459 102.447 304.068 102.746 304.858 104.722C305.649 106.758 306.623 110.35 308.265 112.505C309.908 114.661 311.064 113.822 311.368 110.589C311.611 109.392 312.463 109.931 314.592 111.667C316.722 113.403 322.988 117.475 325.361 115.319C327.064 113.523 325.3 111.128 323.049 109.751C321.345 108.614 317.878 106.518 317.574 105.5C317.026 103.704 320.129 104.782 320.92 103.585C321.71 102.387 319.52 100.831 317.878 100.351C316.235 99.8725 313.741 99.6931 311.855 99.2139C309.786 98.675 310.273 97.5974 310.881 97.1784C311.429 96.7594 314.167 96.6995 314.106 94.7835C314.045 93.167 309.543 92.1493 306.927 91.0716C305.954 90.6526 304.98 90.0539 304.068 89.3952C303.642 89.0358 303.702 88.7366 303.885 88.5569C304.189 88.2577 306.44 87.9581 306.623 86.2817C306.623 84.845 304.007 83.9471 301.512 82.6298C299.383 81.5522 298.045 79.696 296.889 77.6007C295.307 74.7867 294.151 70.3563 294.151 70.3563C294.151 70.3563 293.603 72.6314 293.421 74.7268C293.056 79.756 292.752 82.1509 293.36 87.4792C293.603 91.6104 294.029 95.921 295.611 95.8012Z"
    fill="#93C2DB" />
  <path
    d="M275.656 55.8077C275.596 55.9275 269.268 65.387 267.869 80.1153C267.747 79.0373 267.747 77.5407 267.687 76.4031C269.633 63.471 274.926 55.4482 274.987 55.3883L275.656 55.8077Z"
    fill="#FF8AE2" />
  <path
    d="M107.683 148.847C104.215 147.23 102.816 144.417 101.234 141.124C100.078 138.729 98.7399 135.975 96.3064 133.341C89.7358 126.335 74.8304 124.779 74.7087 124.779L74.8304 123.881C75.4389 123.941 90.2225 125.497 97.0362 132.742C99.5918 135.436 100.93 138.25 102.147 140.705C103.668 143.818 104.946 146.512 108.109 147.949L107.683 148.847Z"
    fill="#FF8AE2" />
  <path
    d="M77.8722 84.1265C77.5072 81.3126 76.1082 66.8838 81.1576 56.2268C87.1198 43.7736 98.5574 35.6312 98.6788 35.5713L99.2265 36.2898C99.1049 36.3496 87.8499 44.3723 82.0094 56.6458C77.0208 67.0635 78.4807 81.3126 78.7848 84.0666L77.8722 84.1265Z"
    fill="#FF8AE2" />
  <path
    d="M364.542 39.3431C356.692 39.3431 349.635 37.6667 347.749 37.1877L347.992 36.2896C350.73 37.0081 364.843 40.301 376.04 36.8883C389.178 32.877 398.731 22.9983 398.853 22.8785L399.52 23.4773C399.402 23.597 389.666 33.5955 376.341 37.7265C372.511 38.924 368.372 39.3431 364.542 39.3431Z"
    fill="#FF8AE2" />
  <path
    d="M317.513 110.23C317.391 110.17 305.528 102.926 298.714 90.9518C296.037 86.2821 294.76 80.6542 294.029 75.6846C293.847 74.4875 293.664 72.0327 293.664 72.0327L294.212 69.2188C294.516 75.0263 295.733 83.8872 299.505 90.5328C306.197 102.267 317.878 109.452 318 109.512L317.513 110.23Z"
    fill="#FF8AE2" />
  <path
    d="M129.341 79.7559C129.28 79.0374 129.22 78.2592 129.098 77.5407C123.988 69.6377 114.01 62.8124 113.524 62.5132L113.037 63.2317C113.098 63.2913 124.84 71.2542 129.341 79.7559Z"
    fill="#FF8AE2" />
  <path
    d="M149.114 88.5573C149.053 88.6168 145.403 92.0894 141.935 95.3227C137.676 99.2742 136.155 103.285 137.311 107.955C137.737 108.374 138.163 108.794 138.65 109.153C136.885 104.183 138.102 100.112 142.604 95.981C146.072 92.748 149.783 89.2155 149.783 89.2155L149.114 88.5573Z"
    fill="#FF8AE2" />
  <path
    d="M349.635 89.9341C349.574 89.994 345.924 93.4666 342.457 96.6995C338.988 99.9325 337.346 103.166 337.467 106.758C337.772 107.177 338.137 107.536 338.502 107.895C337.954 104.064 339.415 100.711 343.126 97.2983C346.593 94.0653 350.304 90.5328 350.304 90.5328L349.635 89.9341Z"
    fill="#FF8AE2" />
  <path
    d="M213.541 90.2336C213.419 91.0117 213.297 91.7901 213.297 92.5682C217.678 83.7074 228.263 77.7204 228.385 77.6605L227.959 76.8821C227.898 76.8821 224.127 79.0374 220.172 82.5699C217.921 84.5458 215.426 87.1201 213.541 90.2336Z"
    fill="#FF8AE2" />
  <path
    d="M384.555 83.4083C388.755 81.3724 395.385 82.091 395.446 82.091L395.568 81.1931C395.263 81.1331 388.572 80.4146 384.131 82.5699C381.209 83.9471 378.836 86.1623 376.952 89.156C376.891 89.7547 376.891 90.413 376.952 91.0117C378.836 87.5391 381.392 84.9648 384.555 83.4083Z"
    fill="#FF8AE2" />
  <path
    d="M319.399 159.744L318.669 159.205C318.79 159.085 321.102 156.091 325.057 153.696C327.247 152.379 329.68 151.302 332.783 150.224C341.24 147.41 353.711 148.368 354.259 148.428L354.198 149.326C354.076 149.326 341.361 148.308 333.087 151.122C329.985 152.14 327.673 153.217 325.543 154.475C321.771 156.75 319.46 159.744 319.399 159.744Z"
    fill="#FF8AE2" />
  <path
    d="M4 377H372.049C396.221 377 415.817 396.627 415.817 420.838V452.531H47.768C23.5957 452.531 4 432.904 4 408.693V377Z"
    fill="#F1F7FA" />
  <path
    d="M27.5059 418.162H28.7693V414.345H31.0515C33.4818 414.345 34.5773 412.865 34.5773 411.018C34.5773 409.171 33.4818 407.711 31.0312 407.711H27.5059V418.162ZM28.7693 413.222V408.834H30.9907C32.6872 408.834 33.3341 409.763 33.3341 411.018C33.3341 412.273 32.6872 413.222 31.0109 413.222H28.7693Z"
    fill="#183D5D" />
  <path
    d="M36.4492 418.162H37.6519V413.202C37.6519 412.14 38.4871 411.365 39.6284 411.365C39.9495 411.365 40.2807 411.426 40.3623 411.446V410.222C40.2247 410.211 39.9084 410.201 39.7303 410.201C38.7927 410.201 37.9777 410.732 37.6924 411.508H37.6108V410.324H36.4492V418.162Z"
    fill="#183D5D" />
  <path
    d="M44.8301 418.325C46.4199 418.325 47.5816 417.529 47.9485 416.345L46.7869 416.018C46.4807 416.835 45.773 417.243 44.8301 417.243C43.4189 417.243 42.4461 416.33 42.3901 414.651H48.0706V414.141C48.0706 411.222 46.3383 410.222 44.7079 410.222C42.5885 410.222 41.1826 411.896 41.1826 414.304C41.1826 416.713 42.5682 418.325 44.8301 418.325ZM42.3901 413.61C42.4711 412.39 43.3325 411.304 44.7079 411.304C46.0125 411.304 46.8477 412.283 46.8477 413.61H42.3901Z"
    fill="#183D5D" />
  <path
    d="M55.4428 412.079C55.0658 410.967 54.2199 410.222 52.6711 410.222C51.0204 410.222 49.7975 411.16 49.7975 412.487C49.7975 413.569 50.4396 414.294 51.8764 414.631L53.1804 414.937C53.9703 415.12 54.342 415.498 54.342 416.039C54.342 416.713 53.629 417.264 52.5079 417.264C51.525 417.264 50.9084 416.84 50.694 415.998L49.5532 416.284C49.8332 417.616 50.9287 418.325 52.5282 418.325C54.3474 418.325 55.5852 417.33 55.5852 415.978C55.5852 414.886 54.9026 414.197 53.5068 413.855L52.3452 413.569C51.4178 413.339 51.0002 413.029 51.0002 412.426C51.0002 411.752 51.7132 411.263 52.6711 411.263C53.7207 411.263 54.1538 411.844 54.3623 412.385L55.4428 412.079Z"
    fill="#183D5D" />
  <path
    d="M60.676 418.325C62.2659 418.325 63.4275 417.529 63.7944 416.345L62.6328 416.018C62.3272 416.835 61.619 417.243 60.676 417.243C59.2648 417.243 58.292 416.33 58.236 414.651H63.9166V414.141C63.9166 411.222 62.1843 410.222 60.5539 410.222C58.4344 410.222 57.0286 411.896 57.0286 414.304C57.0286 416.713 58.4142 418.325 60.676 418.325ZM58.236 413.61C58.3176 412.39 59.1784 411.304 60.5539 411.304C61.8584 411.304 62.6936 412.283 62.6936 413.61H58.236Z"
    fill="#183D5D" />
  <path
    d="M66.948 413.447C66.948 412.079 67.7939 411.304 68.9448 411.304C70.0606 411.304 70.7384 412.033 70.7384 413.263V418.161H71.9406V413.181C71.9406 411.181 70.876 410.222 69.2915 410.222C68.1096 410.222 67.3758 410.752 67.0088 411.548H66.907V410.324H65.7454V418.161H66.948V413.447Z"
    fill="#183D5D" />
  <path
    d="M77.5411 410.324H75.8701V408.446H74.6675V410.324H73.4856V411.344H74.6675V416.243C74.6675 417.611 75.7683 418.264 76.7869 418.264C77.2355 418.264 77.5208 418.182 77.684 418.121L77.4392 417.039C77.3373 417.059 77.1741 417.101 76.9096 417.101C76.3794 417.101 75.8701 416.937 75.8701 415.916V411.344H77.5411V410.324Z"
    fill="#183D5D" />
  <path
    d="M82.5469 418.325C84.1363 418.325 85.2979 417.529 85.6648 416.345L84.5032 416.018C84.1976 416.835 83.4893 417.243 82.5469 417.243C81.1357 417.243 80.1624 416.33 80.1064 414.651H85.7869V414.141C85.7869 411.222 84.0547 410.222 82.4243 410.222C80.3053 410.222 78.8989 411.896 78.8989 414.304C78.8989 416.713 80.2845 418.325 82.5469 418.325ZM80.1064 413.61C80.188 412.39 81.0488 411.304 82.4243 411.304C83.7288 411.304 84.5645 412.283 84.5645 413.61H80.1064Z"
    fill="#183D5D" />
  <path
    d="M90.5709 418.325C92.0792 418.325 92.5885 417.386 92.8536 416.957H92.996V418.162H94.1576V407.711H92.9554V411.569H92.8536C92.5885 411.161 92.1197 410.222 90.5911 410.222C88.6146 410.222 87.2493 411.794 87.2493 414.263C87.2493 416.753 88.6146 418.325 90.5709 418.325ZM90.7341 417.243C89.2258 417.243 88.4514 415.916 88.4514 414.243C88.4514 412.589 89.2055 411.304 90.7341 411.304C92.2013 411.304 92.9757 412.487 92.9757 414.243C92.9757 416.018 92.181 417.243 90.7341 417.243Z"
    fill="#183D5D" />
  <path
    d="M100.725 418.162H101.887V416.957H102.029C102.294 417.386 102.803 418.325 104.312 418.325C106.268 418.325 107.633 416.753 107.633 414.263C107.633 411.794 106.268 410.222 104.291 410.222C102.763 410.222 102.294 411.161 102.029 411.569H101.927V407.711H100.725V418.162ZM101.907 414.243C101.907 412.487 102.681 411.304 104.149 411.304C105.677 411.304 106.431 412.589 106.431 414.243C106.431 415.916 105.657 417.243 104.149 417.243C102.702 417.243 101.907 416.018 101.907 414.243Z"
    fill="#183D5D" />
  <path
    d="M109.967 421.081C111.052 421.081 111.821 420.504 112.27 419.305L115.601 410.344L114.287 410.324L112.127 416.57H112.046L109.885 410.324H108.581L111.475 418.203L111.25 418.815C110.823 419.988 110.272 420.101 109.396 419.876L109.09 420.938C109.213 420.999 109.559 421.081 109.967 421.081Z"
    fill="#183D5D" />
  <path fill-rule="evenodd" clip-rule="evenodd"
    d="M140.353 425.793V421.379C145.068 421.379 148.714 416.743 146.914 411.818C146.248 409.994 144.783 408.54 142.946 407.877C137.99 406.091 133.324 409.712 133.323 414.395C133.323 414.395 133.323 414.396 133.322 414.396H128.88C128.88 406.934 136.138 401.123 144.01 403.564C147.45 404.631 150.183 407.346 151.257 410.764C153.714 418.584 147.865 425.793 140.353 425.793Z"
    fill="#183D5D" />
  <path fill-rule="evenodd" clip-rule="evenodd"
    d="M139.664 421.521H135.234V417.122C135.234 417.122 135.234 417.121 135.235 417.121H139.664C139.664 417.121 139.664 417.122 139.664 417.122V421.521ZM135.233 424.902H131.831L131.83 424.901V421.521H135.234V424.901L135.233 424.902ZM131.832 421.521H128.98C128.978 421.521 128.978 421.52 128.978 421.52V418.688C128.978 418.688 128.978 418.686 128.98 418.686H131.83C131.831 418.686 131.832 418.687 131.832 418.687V421.521ZM162.44 410.571H163.745C165.198 410.571 166.393 410.855 167.299 411.415C168.306 412.018 168.816 413.165 168.816 414.824C168.816 416.533 168.304 417.731 167.296 418.387H167.295C166.427 418.958 165.239 419.247 163.763 419.247H162.44V410.571ZM169.029 409.72C167.715 408.815 166.08 408.356 164.17 408.356H160.011V421.462H164.17C166.075 421.462 167.711 420.978 169.031 420.023C169.748 419.517 170.312 418.81 170.707 417.921C171.1 417.038 171.299 415.995 171.299 414.824C171.299 413.666 171.1 412.638 170.707 411.766C170.312 410.891 169.747 410.203 169.029 409.72ZM174.194 408.194C173.794 408.194 173.45 408.335 173.172 408.611C172.892 408.876 172.75 409.213 172.75 409.611C172.75 410.009 172.891 410.35 173.17 410.628C173.45 410.906 173.794 411.047 174.194 411.047C174.593 411.047 174.938 410.906 175.217 410.628C175.497 410.35 175.639 410.008 175.639 409.611C175.639 409.214 175.496 408.877 175.217 408.613C174.938 408.335 174.593 408.194 174.194 408.194ZM173.002 421.462H175.34V412.231H173.002V421.462ZM183.219 418.454C182.811 418.915 182.286 419.139 181.615 419.139C180.945 419.139 180.423 418.915 180.02 418.455C179.619 417.997 179.416 417.389 179.416 416.649C179.416 415.898 179.619 415.283 180.02 414.821C180.418 414.365 180.954 414.133 181.615 414.133C182.286 414.133 182.81 414.358 183.219 414.822C183.626 415.283 183.833 415.898 183.833 416.649C183.833 417.389 183.626 417.996 183.219 418.454ZM183.833 413.002C183.128 412.38 182.34 412.016 181.489 412.016C180.198 412.016 179.125 412.46 178.3 413.334C177.465 414.2 177.041 415.316 177.041 416.649C177.041 417.953 177.458 419.064 178.283 419.956C179.114 420.819 180.192 421.256 181.489 421.256C182.39 421.256 183.165 421.007 183.796 420.514V420.727C183.796 421.493 183.59 422.088 183.183 422.498C182.776 422.906 182.212 423.113 181.507 423.113C180.427 423.113 179.751 422.692 178.928 421.586L177.335 423.106L177.378 423.166C177.722 423.645 178.249 424.115 178.944 424.561C179.64 425.005 180.514 425.23 181.543 425.23C182.931 425.23 184.054 424.805 184.881 423.967C185.713 423.125 186.135 421.996 186.135 420.615V412.231H183.833V413.002ZM188.136 421.462H190.474V412.231H188.136V421.462ZM189.328 408.194C188.928 408.194 188.584 408.335 188.306 408.611C188.025 408.876 187.883 409.213 187.883 409.611C187.883 410.009 188.025 410.35 188.304 410.628C188.584 410.906 188.928 411.047 189.328 411.047C189.727 411.047 190.071 410.906 190.351 410.628C190.631 410.35 190.772 410.008 190.772 409.611C190.772 409.214 190.63 408.877 190.351 408.613C190.071 408.335 189.727 408.194 189.328 408.194ZM195.599 409.737H193.297V412.231H191.961V414.348H193.297V418.183C193.297 419.383 193.538 420.241 194.015 420.734C194.492 421.229 195.34 421.48 196.535 421.48C196.914 421.48 197.297 421.468 197.671 421.444L197.776 421.437V419.321L196.974 419.363C196.417 419.363 196.046 419.266 195.869 419.074C195.69 418.881 195.599 418.469 195.599 417.853V414.349H197.776V412.231H195.599V409.737ZM208.74 421.462H211.079V408.356H208.74V421.462ZM234.702 418.162C234.284 418.627 233.856 419.031 233.526 419.241V419.241C233.203 419.447 232.795 419.552 232.314 419.552C231.625 419.552 231.071 419.303 230.619 418.789C230.17 418.279 229.943 417.623 229.943 416.838C229.943 416.053 230.168 415.398 230.611 414.891C231.056 414.381 231.607 414.133 232.296 414.133C233.049 414.133 233.843 414.598 234.523 415.397L236.069 413.925C235.061 412.622 233.776 412.016 232.241 412.016C230.958 412.016 229.844 412.481 228.934 413.396C228.028 414.305 227.568 415.463 227.568 416.838C227.568 418.212 228.027 419.373 228.932 420.288C229.839 421.204 230.952 421.669 232.241 421.669C233.935 421.669 235.301 420.943 236.222 419.613L234.702 418.162ZM239.188 415.694C239.301 415.253 239.506 414.885 239.799 414.599C240.116 414.29 240.528 414.133 241.025 414.133C241.592 414.133 242.031 414.293 242.329 414.61C242.606 414.903 242.762 415.267 242.794 415.694H239.188ZM244.299 413.521C243.968 413.062 243.516 412.693 242.956 412.422C242.399 412.153 241.748 412.016 241.024 412.016C239.719 412.016 238.651 412.494 237.849 413.438C237.071 414.376 236.676 415.54 236.676 416.9C236.676 418.299 237.109 419.458 237.963 420.342C238.812 421.222 239.948 421.669 241.34 421.669C242.917 421.669 244.211 421.035 245.186 419.786L245.239 419.719L243.713 418.262C243.572 418.432 243.372 418.624 243.189 418.795C242.958 419.011 242.741 419.179 242.509 419.294C242.16 419.467 241.768 419.552 241.329 419.552C240.681 419.552 240.145 419.362 239.734 418.989C239.351 418.64 239.127 418.169 239.067 417.587H245.262L245.283 416.739C245.283 416.139 245.201 415.561 245.039 415.021C244.878 414.483 244.628 413.976 244.299 413.521ZM249.128 417.935C249.393 417.751 249.768 417.659 250.241 417.659C250.804 417.659 251.401 417.771 252.017 417.992V418.898C251.508 419.367 250.83 419.605 249.998 419.605C249.593 419.605 249.279 419.516 249.063 419.339C248.85 419.166 248.747 418.946 248.747 418.668C248.747 418.351 248.871 418.111 249.128 417.935ZM253.279 412.922C252.57 412.321 251.591 412.016 250.368 412.016C249.59 412.016 248.862 412.186 248.204 412.517C247.595 412.824 246.997 413.332 246.617 413.997L246.641 414.025L248.138 415.449C248.755 414.472 249.441 414.133 250.35 414.133C250.839 414.133 251.244 414.263 251.556 414.52C251.866 414.775 252.017 415.099 252.017 415.51V415.958C251.437 415.783 250.858 415.694 250.296 415.694C249.132 415.694 248.185 415.966 247.482 416.502C246.769 417.046 246.408 417.822 246.408 418.811C246.408 419.679 246.713 420.383 247.315 420.907C247.923 421.412 248.683 421.669 249.574 421.669C250.464 421.669 251.297 421.313 252.052 420.702V421.462H254.355V415.528C254.355 414.405 253.993 413.528 253.279 412.922ZM263.351 413.103C262.699 412.382 261.784 412.016 260.63 412.016C259.702 412.016 258.949 412.28 258.385 412.803V412.231H256.092V421.462H258.431V416.372C258.431 415.672 258.598 415.117 258.929 414.72C259.258 414.325 259.711 414.133 260.314 414.133C260.843 414.133 261.245 414.305 261.541 414.658C261.839 415.013 261.989 415.501 261.989 416.111V421.462H264.328V416.111C264.328 414.833 263.999 413.821 263.351 413.103ZM201.649 417.935C201.915 417.751 202.29 417.659 202.763 417.659C203.327 417.659 203.923 417.771 204.539 417.992V418.898C204.031 419.367 203.352 419.605 202.52 419.605C202.115 419.605 201.801 419.516 201.585 419.339C201.372 419.166 201.269 418.946 201.269 418.668C201.269 418.351 201.393 418.111 201.649 417.935ZM205.801 412.922H205.801C205.092 412.321 204.113 412.016 202.89 412.016C202.112 412.016 201.384 412.186 200.726 412.517C200.117 412.824 199.519 413.332 199.139 413.997L199.163 414.025L200.66 415.449C201.277 414.472 201.963 414.133 202.872 414.133C203.361 414.133 203.766 414.263 204.078 414.52C204.388 414.775 204.539 415.099 204.539 415.51V415.958C203.959 415.783 203.38 415.694 202.818 415.694C201.654 415.694 200.707 415.966 200.004 416.502C199.291 417.046 198.93 417.822 198.93 418.811C198.93 419.679 199.235 420.383 199.838 420.907C200.446 421.412 201.205 421.669 202.096 421.669C202.986 421.669 203.818 421.313 204.575 420.702V421.462H206.877V415.528C206.877 414.405 206.515 413.528 205.801 412.922ZM219.563 410.528C217.134 410.528 215.158 412.491 215.158 414.903C215.158 417.316 217.134 419.279 219.563 419.279C221.991 419.279 223.967 417.316 223.967 414.903C223.967 412.491 221.991 410.528 219.563 410.528ZM219.563 421.659C215.812 421.659 212.761 418.629 212.761 414.903C212.761 411.178 215.812 408.147 219.563 408.147C223.313 408.147 226.364 411.178 226.364 414.903C226.364 418.629 223.313 421.659 219.563 421.659Z"
    fill="#183D5D" />
  <path
    d="M280.398 417.764H281.54V414.968H284.332V413.825H281.54V411.028H280.398V413.825H277.606V414.968H280.398V417.764Z"
    fill="#183D5D" />
  <path d="M300.718 406.29H297.61V409.404H300.718V406.29Z" fill="#183D5D" />
  <path
    d="M300.639 422.506V411.294H297.697V422.506H300.639ZM320.197 422.617V419.869C319.765 419.869 319.4 419.847 319.135 419.803C318.825 419.758 318.593 419.648 318.438 419.492C318.283 419.337 318.183 419.116 318.128 418.828C318.084 418.551 318.062 418.185 318.062 417.742V413.82H320.197V411.294H318.062V406.918H315.108V417.764C315.108 418.683 315.186 419.459 315.341 420.08C315.495 420.689 315.761 421.188 316.126 421.564C316.491 421.941 316.978 422.207 317.564 422.373C318.161 422.539 318.914 422.617 319.81 422.617H320.197ZM337.099 422.506V406.053H334.145V422.506H337.099ZM312.266 412.391C311.447 411.505 310.296 411.061 308.836 411.061C308.128 411.061 307.487 411.205 306.901 411.493C306.325 411.781 305.828 412.18 305.44 412.69L305.275 412.9V412.712V411.294H302.365V422.506H305.297V416.534V416.944C305.297 416.878 305.297 416.811 305.297 416.745C305.33 415.693 305.584 414.917 306.071 414.418C306.591 413.886 307.221 413.62 307.94 413.62C308.792 413.62 309.445 413.886 309.876 414.396C310.297 414.906 310.518 415.626 310.518 416.546V416.568V422.495H313.493V416.135C313.504 414.54 313.084 413.277 312.266 412.391ZM332.619 416.878C332.619 416.069 332.475 415.315 332.198 414.607C331.911 413.908 331.513 413.288 331.015 412.756C330.506 412.225 329.898 411.814 329.19 411.515C328.482 411.216 327.697 411.072 326.845 411.072C326.037 411.072 325.274 411.227 324.566 411.526C323.858 411.837 323.238 412.247 322.718 412.767C322.199 413.288 321.778 413.908 321.48 414.618C321.17 415.327 321.026 416.091 321.026 416.9C321.026 417.709 321.17 418.473 321.458 419.182C321.745 419.891 322.155 420.512 322.663 421.032C323.172 421.553 323.803 421.974 324.533 422.273C325.263 422.584 326.07 422.738 326.933 422.738C329.433 422.738 330.982 421.597 331.911 420.534L329.787 418.916C329.345 419.448 328.283 420.168 326.955 420.168C326.126 420.168 325.44 419.98 324.92 419.592C324.4 419.215 324.046 418.683 323.858 418.03L323.825 417.93H332.619V416.878ZM323.847 415.847C323.847 415.027 324.787 413.599 326.811 413.587C328.836 413.587 329.787 415.016 329.787 415.836L323.847 415.847Z"
    fill="#183D5D" />
  <path
    d="M353.17 417.764H354.312V414.968H357.104V413.825H354.312V411.028H353.17V413.825H350.378V414.968H353.17V417.764Z"
    fill="#183D5D" />
  <path
    d="M389.795 425.879C383.724 425.292 377.649 424.701 371.578 424.113C371.474 424.062 371.367 424.013 371.263 423.958C370.655 423.639 370.325 423.04 370.392 422.366C370.967 416.411 371.541 410.455 372.122 404.503C372.134 404.365 372.171 404.224 372.232 404.102C372.547 403.459 373.209 403.098 373.928 403.168C379.788 403.738 385.649 404.304 391.512 404.873C392.463 404.965 393.138 405.794 393.046 406.749C392.481 412.603 391.912 418.461 391.347 424.316C391.292 424.888 391.014 425.329 390.519 425.61C390.296 425.736 390.037 425.791 389.795 425.879ZM375.217 417.102C375.248 417.115 375.266 417.127 375.284 417.127C375.978 417.194 376.669 417.283 377.362 417.322C378.199 417.372 379.052 416.686 379.147 415.869C379.281 414.74 379.388 413.604 379.477 412.469C379.541 411.642 378.811 410.789 377.989 410.691C377.319 410.611 376.647 410.556 375.975 410.492C375.935 410.489 375.895 410.498 375.856 410.501C375.642 412.711 375.428 414.905 375.217 417.102ZM384.384 411.312C384.384 411.364 384.375 411.401 384.381 411.431C384.692 413.329 384.995 415.229 385.325 417.127C385.37 417.399 385.511 417.674 385.676 417.898C385.957 418.283 386.48 418.329 386.825 418.002C387.027 417.809 387.21 417.564 387.311 417.307C387.879 415.838 388.417 414.36 388.967 412.885C389.099 412.527 389.23 412.169 389.364 411.802C388.909 411.759 388.484 411.716 388.038 411.673C387.512 413.108 386.987 414.544 386.464 415.979C386.413 415.89 386.391 415.796 386.376 415.704C386.156 414.336 385.939 412.968 385.716 411.6C385.706 411.538 385.652 411.444 385.609 411.437C385.203 411.385 384.796 411.352 384.384 411.312ZM381.283 413.754C381.313 413.436 381.337 413.152 381.371 412.867C381.396 412.662 381.365 412.38 381.484 412.273C381.588 412.178 381.869 412.273 382.071 412.291C382.559 412.337 383.045 412.386 383.54 412.432C383.58 412.022 383.617 411.637 383.656 411.239C382.773 411.153 381.909 411.061 381.041 410.994C380.897 410.982 380.729 411.064 380.598 411.147C380.335 411.309 380.274 411.587 380.246 411.875C380.1 413.408 379.95 414.942 379.804 416.478C379.791 416.598 379.785 416.717 379.785 416.836C379.785 417.271 380.078 417.595 380.512 417.638C381.283 417.715 382.052 417.788 382.819 417.861C382.886 417.867 382.953 417.867 383.018 417.87C383.057 417.467 383.094 417.084 383.134 416.677C382.425 416.61 381.732 416.543 381.038 416.475C381.087 415.961 381.136 415.474 381.184 414.963C381.615 415.006 382.031 415.046 382.456 415.085C382.495 414.672 382.532 414.287 382.572 413.883C382.144 413.837 381.732 413.797 381.283 413.754Z"
    fill="#183D5D" />
  <path
    d="M376.518 416.037C376.656 414.614 376.79 413.218 376.924 411.819C377.221 411.846 377.52 411.844 377.801 411.914C378.128 411.993 378.29 412.275 378.257 412.651C378.174 413.591 378.086 414.528 377.985 415.464C377.939 415.89 377.679 416.107 377.246 416.104C377.01 416.101 376.775 416.061 376.518 416.037Z"
    fill="#183D5D" />
  <path fill-rule="evenodd" clip-rule="evenodd"
    d="M208.358 321.692L208.531 322.406L207.941 322.012L207.35 322.406L207.523 321.692L206.985 321.221L207.683 321.175L207.941 320.49L208.199 321.175L208.896 321.221L208.358 321.692Z"
    fill="white" />
  <path fill-rule="evenodd" clip-rule="evenodd"
    d="M202.739 315.959L202.912 316.674L202.321 316.279L201.731 316.674L201.904 315.959L201.366 315.49L202.063 315.443L202.321 314.758L202.579 315.443L203.277 315.49L202.739 315.959Z"
    fill="white" />
  <path fill-rule="evenodd" clip-rule="evenodd"
    d="M201.257 308.071L201.43 308.785L200.839 308.391L200.249 308.785L200.422 308.071L199.884 307.601L200.581 307.554L200.839 306.869L201.097 307.554L201.795 307.601L201.257 308.071Z"
    fill="white" />
  <path fill-rule="evenodd" clip-rule="evenodd" d="M267 273V349H164V273H267Z" fill="#00A651" />
  <path d="M215.5 282.229L172.755 311L215.5 339.771L258.245 311L215.5 282.229Z" fill="#FFCB05" />
  <path
    d="M215.5 292C225.453 292 233.525 300.508 233.525 311C233.525 321.492 225.453 330 215.5 330C205.547 330 197.475 321.492 197.475 311C197.475 300.508 205.547 292 215.5 292Z"
    fill="#2E3192" />
  <path fill-rule="evenodd" clip-rule="evenodd"
    d="M221.427 304.552L221.6 305.266L221.01 304.872L220.419 305.266L220.593 304.552L220.054 304.082L220.752 304.035L221.01 303.35L221.268 304.035L221.965 304.082L221.427 304.552Z"
    fill="white" />
  <path fill-rule="evenodd" clip-rule="evenodd"
    d="M220.025 309.977L220.149 310.491L219.725 310.207L219.3 310.491L219.424 309.977L219.037 309.639L219.539 309.605L219.725 309.113L219.91 309.605L220.412 309.639L220.025 309.977Z"
    fill="white" />
  <path fill-rule="evenodd" clip-rule="evenodd"
    d="M208.819 311.927L208.965 312.529L208.467 312.197L207.968 312.529L208.115 311.927L207.66 311.53L208.249 311.49L208.467 310.913L208.685 311.49L209.273 311.53L208.819 311.927Z"
    fill="white" />
  <path fill-rule="evenodd" clip-rule="evenodd"
    d="M204.197 314.64L204.29 315.024L203.973 314.812L203.655 315.024L203.748 314.64L203.459 314.387L203.834 314.362L203.973 313.993L204.112 314.362L204.487 314.387L204.197 314.64Z"
    fill="white" />
  <path fill-rule="evenodd" clip-rule="evenodd"
    d="M200.786 317.575L200.932 318.177L200.433 317.845L199.935 318.177L200.081 317.575L199.627 317.178L200.216 317.138L200.433 316.56L200.651 317.138L201.24 317.178L200.786 317.575Z"
    fill="white" />
  <path fill-rule="evenodd" clip-rule="evenodd"
    d="M206.318 317.723L206.464 318.325L205.966 317.993L205.468 318.325L205.614 317.723L205.16 317.326L205.748 317.286L205.966 316.708L206.184 317.286L206.772 317.326L206.318 317.723Z"
    fill="white" />
  <path fill-rule="evenodd" clip-rule="evenodd"
    d="M205.614 319.703L205.739 320.217L205.314 319.933L204.889 320.217L205.013 319.703L204.626 319.365L205.128 319.332L205.314 318.839L205.499 319.332L206.001 319.365L205.614 319.703Z"
    fill="white" />
  <path fill-rule="evenodd" clip-rule="evenodd"
    d="M215.75 326.163L215.817 326.437L215.59 326.286L215.363 326.437L215.429 326.163L215.223 325.983L215.491 325.964L215.59 325.701L215.689 325.964L215.957 325.983L215.75 326.163Z"
    fill="white" />
  <path fill-rule="evenodd" clip-rule="evenodd"
    d="M215.988 314.479L216.134 315.082L215.636 314.749L215.138 315.082L215.284 314.479L214.83 314.082L215.418 314.043L215.636 313.465L215.854 314.043L216.442 314.082L215.988 314.479Z"
    fill="white" />
  <path fill-rule="evenodd" clip-rule="evenodd"
    d="M217.637 316.105L217.783 316.707L217.285 316.374L216.786 316.707L216.932 316.105L216.478 315.708L217.067 315.668L217.285 315.091L217.502 315.668L218.091 315.708L217.637 316.105Z"
    fill="white" />
  <path fill-rule="evenodd" clip-rule="evenodd"
    d="M214.678 317.284L214.772 317.668L214.454 317.456L214.136 317.668L214.229 317.284L213.94 317.031L214.315 317.006L214.454 316.637L214.593 317.006L214.968 317.031L214.678 317.284Z"
    fill="white" />
  <path fill-rule="evenodd" clip-rule="evenodd"
    d="M213.439 316.304L213.564 316.818L213.139 316.534L212.714 316.818L212.839 316.304L212.452 315.966L212.953 315.932L213.139 315.439L213.324 315.932L213.826 315.966L213.439 316.304Z"
    fill="white" />
  <path fill-rule="evenodd" clip-rule="evenodd"
    d="M219.548 321.935L219.672 322.448L219.248 322.165L218.823 322.448L218.947 321.935L218.56 321.597L219.062 321.563L219.248 321.07L219.433 321.563L219.935 321.597L219.548 321.935Z"
    fill="white" />
  <path fill-rule="evenodd" clip-rule="evenodd"
    d="M221.077 324.299L221.223 324.901L220.725 324.568L220.227 324.901L220.373 324.299L219.919 323.902L220.507 323.862L220.725 323.284L220.943 323.862L221.531 323.902L221.077 324.299Z"
    fill="white" />
  <path fill-rule="evenodd" clip-rule="evenodd"
    d="M222.671 322.413L222.795 322.926L222.371 322.643L221.946 322.926L222.07 322.413L221.683 322.075L222.185 322.041L222.371 321.548L222.556 322.041L223.058 322.075L222.671 322.413Z"
    fill="white" />
  <path fill-rule="evenodd" clip-rule="evenodd"
    d="M224.82 325.812L224.945 326.326L224.52 326.042L224.095 326.326L224.22 325.812L223.833 325.474L224.335 325.44L224.52 324.948L224.705 325.44L225.207 325.474L224.82 325.812Z"
    fill="white" />
  <path fill-rule="evenodd" clip-rule="evenodd"
    d="M224.893 323.838L225.039 324.44L224.541 324.107L224.042 324.44L224.189 323.838L223.735 323.441L224.323 323.401L224.541 322.823L224.758 323.401L225.347 323.441L224.893 323.838Z"
    fill="white" />
  <path fill-rule="evenodd" clip-rule="evenodd"
    d="M224.792 321.972L224.917 322.486L224.492 322.202L224.067 322.486L224.191 321.972L223.804 321.634L224.306 321.6L224.492 321.108L224.677 321.6L225.179 321.634L224.792 321.972Z"
    fill="white" />
  <path fill-rule="evenodd" clip-rule="evenodd"
    d="M226.572 321.991L226.697 322.504L226.272 322.221L225.847 322.504L225.972 321.991L225.584 321.653L226.086 321.619L226.272 321.126L226.457 321.619L226.959 321.653L226.572 321.991Z"
    fill="white" />
  <path fill-rule="evenodd" clip-rule="evenodd"
    d="M228.308 321.207L228.454 321.809L227.955 321.477L227.457 321.809L227.603 321.207L227.149 320.81L227.738 320.77L227.955 320.192L228.173 320.77L228.762 320.81L228.308 321.207Z"
    fill="white" />
  <path fill-rule="evenodd" clip-rule="evenodd"
    d="M229.16 319.699L229.306 320.301L228.808 319.969L228.309 320.301L228.456 319.699L228.002 319.302L228.59 319.263L228.808 318.685L229.025 319.263L229.614 319.302L229.16 319.699Z"
    fill="white" />
  <path fill-rule="evenodd" clip-rule="evenodd"
    d="M231.033 317.979L231.157 318.492L230.732 318.209L230.308 318.492L230.432 317.979L230.045 317.641L230.547 317.606L230.732 317.114L230.918 317.606L231.42 317.641L231.033 317.979Z"
    fill="white" />
  <path fill-rule="evenodd" clip-rule="evenodd"
    d="M204.733 305.143C215.447 305.143 225.27 309.291 232.828 316.138C233.078 315.215 233.263 314.264 233.377 313.291C225.541 306.601 215.569 302.584 204.733 302.584C202.854 302.584 201.002 302.707 199.181 302.942C198.792 303.816 198.463 304.725 198.203 305.664C200.333 305.321 202.514 305.143 204.733 305.143V305.143Z"
    fill="white" />
  <path fill-rule="evenodd" clip-rule="evenodd"
    d="M200.095 304.158C200.11 304.343 200.161 304.484 200.248 304.58C200.334 304.675 200.448 304.717 200.588 304.704C200.73 304.691 200.837 304.63 200.907 304.52C200.978 304.41 201.005 304.262 200.99 304.077C200.975 303.892 200.924 303.751 200.837 303.655C200.749 303.56 200.635 303.519 200.493 303.531C200.352 303.544 200.247 303.605 200.177 303.715C200.107 303.824 200.08 303.972 200.095 304.158ZM199.76 304.188C199.737 303.916 199.79 303.693 199.918 303.521C200.046 303.348 200.229 303.251 200.468 303.229C200.707 303.208 200.903 303.271 201.058 303.418C201.213 303.565 201.301 303.775 201.323 304.047C201.345 304.318 201.292 304.541 201.164 304.714C201.035 304.887 200.852 304.984 200.613 305.006C200.374 305.027 200.177 304.965 200.024 304.817C199.87 304.67 199.782 304.46 199.76 304.188ZM202.372 303.873L202.76 303.859C202.844 303.856 202.905 303.836 202.944 303.799C202.982 303.761 203 303.704 202.998 303.627C202.995 303.553 202.974 303.498 202.935 303.462C202.895 303.425 202.837 303.408 202.761 303.411L202.358 303.425L202.372 303.873L202.372 303.873ZM202.072 304.836L202.018 303.145L202.797 303.118C202.971 303.111 203.102 303.146 203.189 303.222C203.276 303.298 203.322 303.417 203.327 303.579C203.33 303.683 203.312 303.77 203.273 303.84C203.235 303.91 203.177 303.959 203.101 303.987C203.172 304.011 203.222 304.049 203.254 304.102C203.285 304.154 203.304 304.237 203.312 304.35L203.325 304.55C203.325 304.551 203.325 304.554 203.325 304.557C203.33 304.657 203.353 304.718 203.393 304.738L203.395 304.79L203.033 304.803C203.021 304.779 203.011 304.75 203.004 304.716C202.997 304.681 202.991 304.64 202.989 304.591L202.978 304.414C202.971 304.309 202.951 304.239 202.916 304.204C202.881 304.168 202.819 304.152 202.731 304.155L202.381 304.167L202.402 304.825L202.072 304.836L202.072 304.836ZM204.441 304.456L204.706 304.462C204.859 304.465 204.971 304.425 205.041 304.341C205.112 304.258 205.148 304.121 205.152 303.932C205.155 303.743 205.125 303.603 205.063 303.513C205.001 303.422 204.902 303.376 204.766 303.373L204.461 303.367L204.441 304.456V304.456ZM204.112 304.755L204.142 303.063L204.771 303.076C205.017 303.081 205.2 303.155 205.318 303.297C205.437 303.439 205.493 303.653 205.488 303.938C205.486 304.093 205.461 304.229 205.414 304.346C205.367 304.463 205.3 304.556 205.214 304.626C205.149 304.679 205.076 304.716 204.994 304.738C204.912 304.759 204.798 304.769 204.651 304.766L204.112 304.755L204.112 304.755ZM206.149 304.793L206.235 303.103L207.4 303.17L207.384 303.463L206.545 303.416L206.527 303.776L207.294 303.82L207.279 304.109L206.512 304.065L206.49 304.5L207.368 304.55L207.352 304.862L206.149 304.793H206.149ZM208.038 304.911L208.209 303.229L208.694 303.283L208.882 304.6L209.325 303.354L209.813 303.409L209.643 305.092L209.335 305.057L209.472 303.7L209.011 305.021L208.675 304.983L208.483 303.589L208.346 304.946L208.038 304.911V304.911ZM212.292 305.489L212.629 303.834L213.769 304.091L213.71 304.379L212.889 304.194L212.817 304.546L213.569 304.716L213.511 304.999L212.76 304.829L212.673 305.255L213.533 305.449L213.471 305.755L212.292 305.489V305.489ZM216.542 305.593L216.85 305.681C216.933 305.705 216.999 305.703 217.046 305.677C217.094 305.65 217.128 305.596 217.149 305.513C217.169 305.435 217.165 305.371 217.139 305.32C217.111 305.27 217.061 305.234 216.988 305.213L216.663 305.121L216.542 305.593L216.542 305.593ZM216.464 305.889L216.316 306.47L215.997 306.379L216.414 304.745L217.104 304.941C217.266 304.987 217.378 305.067 217.44 305.18C217.5 305.293 217.509 305.435 217.465 305.608C217.422 305.777 217.347 305.895 217.242 305.963C217.137 306.031 217.007 306.043 216.856 306L216.464 305.889H216.464ZM218.394 306.155L218.766 306.275C218.846 306.301 218.91 306.303 218.958 306.281C219.006 306.258 219.04 306.21 219.062 306.136C219.083 306.066 219.08 306.007 219.054 305.959C219.027 305.911 218.978 305.875 218.905 305.851L218.519 305.726L218.394 306.155L218.394 306.155ZM217.813 306.962L218.285 305.345L219.029 305.586C219.196 305.64 219.309 305.718 219.368 305.82C219.426 305.921 219.433 306.05 219.388 306.205C219.359 306.304 219.315 306.38 219.257 306.433C219.198 306.486 219.129 306.513 219.048 306.513C219.107 306.56 219.144 306.613 219.157 306.673C219.17 306.734 219.163 306.819 219.136 306.929L219.087 307.122C219.086 307.123 219.085 307.125 219.085 307.128C219.059 307.225 219.061 307.291 219.093 307.323L219.079 307.373L218.732 307.26C218.728 307.234 218.728 307.204 218.732 307.168C218.736 307.133 218.743 307.092 218.756 307.046L218.801 306.874C218.827 306.773 218.829 306.699 218.807 306.654C218.784 306.608 218.731 306.572 218.647 306.545L218.313 306.436L218.129 307.065L217.813 306.962L217.813 306.962ZM220.258 306.957C220.197 307.132 220.187 307.282 220.227 307.407C220.268 307.532 220.354 307.62 220.486 307.671C220.62 307.723 220.741 307.715 220.849 307.647C220.957 307.578 221.041 307.457 221.102 307.282C221.163 307.107 221.173 306.957 221.132 306.832C221.091 306.706 221.004 306.618 220.87 306.566C220.738 306.515 220.617 306.523 220.51 306.591C220.403 306.66 220.319 306.781 220.258 306.957L220.258 306.957ZM219.942 306.835C220.031 306.578 220.168 306.4 220.353 306.3C220.538 306.201 220.743 306.194 220.969 306.281C221.194 306.368 221.347 306.512 221.428 306.715C221.509 306.917 221.505 307.147 221.416 307.403C221.327 307.659 221.19 307.837 221.004 307.937C220.818 308.036 220.613 308.043 220.388 307.956C220.162 307.869 220.009 307.725 219.929 307.522C219.849 307.32 219.853 307.091 219.942 306.835H219.942ZM222.912 308.822C222.825 308.876 222.74 308.905 222.655 308.91C222.57 308.915 222.481 308.897 222.386 308.855C222.18 308.762 222.043 308.611 221.976 308.403C221.91 308.194 221.926 307.966 222.025 307.721C222.126 307.473 222.27 307.303 222.458 307.212C222.645 307.12 222.846 307.123 223.058 307.218C223.243 307.301 223.376 307.415 223.455 307.561C223.534 307.707 223.552 307.867 223.507 308.04L223.198 307.901C223.212 307.812 223.199 307.733 223.158 307.665C223.117 307.597 223.05 307.541 222.957 307.5C222.834 307.444 222.717 307.448 222.608 307.512C222.499 307.576 222.41 307.692 222.342 307.86C222.274 308.03 222.257 308.178 222.292 308.307C222.326 308.436 222.408 308.529 222.537 308.587C222.633 308.63 222.725 308.636 222.814 308.606C222.903 308.575 222.977 308.511 223.034 308.413L222.699 308.263L222.807 307.997L223.419 308.272L223.078 309.114L222.875 309.022L222.912 308.822V308.822ZM224.438 308.777L224.787 308.958C224.863 308.996 224.926 309.009 224.976 308.995C225.027 308.981 225.068 308.939 225.101 308.869C225.131 308.803 225.137 308.745 225.119 308.693C225.1 308.641 225.056 308.597 224.988 308.562L224.625 308.375L224.438 308.777H224.438ZM223.744 309.479L224.45 307.96L225.15 308.321C225.307 308.402 225.407 308.497 225.449 308.607C225.492 308.717 225.48 308.845 225.412 308.991C225.369 309.084 225.314 309.152 225.249 309.194C225.183 309.238 225.11 309.252 225.031 309.239C225.083 309.295 225.111 309.354 225.115 309.416C225.119 309.478 225.099 309.56 225.056 309.664L224.978 309.847C224.977 309.848 224.977 309.85 224.976 309.853C224.935 309.944 224.928 310.009 224.955 310.047L224.933 310.093L224.608 309.925C224.608 309.898 224.612 309.868 224.621 309.834C224.63 309.8 224.644 309.761 224.663 309.717L224.733 309.555C224.774 309.459 224.786 309.387 224.771 309.338C224.756 309.29 224.709 309.245 224.63 309.204L224.316 309.042L224.041 309.633L223.745 309.479L223.744 309.479ZM225.538 310.451L226.319 308.972L227.338 309.569L227.202 309.826L226.468 309.396L226.302 309.711L226.973 310.105L226.839 310.358L226.168 309.964L225.968 310.344L226.736 310.795L226.592 311.068L225.538 310.451V310.451ZM227.35 310.975L227.629 311.152C227.594 311.238 227.591 311.317 227.62 311.388C227.649 311.458 227.712 311.524 227.808 311.586C227.891 311.638 227.961 311.662 228.021 311.657C228.08 311.653 228.127 311.621 228.161 311.561C228.211 311.472 228.134 311.324 227.927 311.114C227.924 311.111 227.921 311.109 227.92 311.106C227.914 311.101 227.906 311.093 227.895 311.081C227.783 310.97 227.71 310.879 227.677 310.807C227.647 310.744 227.636 310.676 227.642 310.604C227.648 310.533 227.672 310.459 227.716 310.384C227.796 310.243 227.904 310.164 228.038 310.146C228.171 310.129 228.324 310.175 228.496 310.284C228.656 310.386 228.759 310.506 228.804 310.643C228.848 310.781 228.832 310.924 228.753 311.073L228.482 310.9C228.517 310.827 228.522 310.757 228.497 310.691C228.471 310.625 228.416 310.565 228.331 310.511C228.257 310.464 228.192 310.443 228.134 310.448C228.076 310.453 228.032 310.484 227.999 310.54C227.955 310.617 228.001 310.723 228.135 310.861C228.171 310.898 228.199 310.928 228.22 310.949C228.305 311.039 228.364 311.106 228.397 311.147C228.431 311.189 228.458 311.229 228.478 311.267C228.515 311.335 228.533 311.406 228.529 311.477C228.527 311.549 228.503 311.623 228.46 311.699C228.374 311.849 228.259 311.935 228.115 311.957C227.971 311.979 227.812 311.934 227.636 311.823C227.463 311.713 227.352 311.584 227.302 311.437C227.252 311.29 227.268 311.136 227.35 310.975L227.35 310.975ZM229.042 312.09L229.312 312.283C229.272 312.367 229.266 312.445 229.291 312.518C229.317 312.59 229.376 312.659 229.469 312.726C229.549 312.783 229.618 312.81 229.678 312.809C229.737 312.808 229.785 312.779 229.823 312.72C229.878 312.635 229.807 312.482 229.611 312.261C229.609 312.258 229.606 312.256 229.604 312.253C229.599 312.248 229.591 312.239 229.581 312.226C229.475 312.109 229.407 312.015 229.377 311.941C229.35 311.876 229.342 311.808 229.351 311.737C229.361 311.666 229.39 311.594 229.436 311.52C229.524 311.384 229.635 311.311 229.77 311.301C229.904 311.291 230.054 311.345 230.22 311.464C230.376 311.575 230.472 311.7 230.51 311.839C230.548 311.98 230.524 312.121 230.438 312.266L230.176 312.079C230.214 312.007 230.223 311.938 230.201 311.871C230.179 311.804 230.128 311.74 230.045 311.682C229.973 311.63 229.909 311.606 229.851 311.607C229.793 311.61 229.747 311.638 229.712 311.692C229.664 311.766 229.704 311.875 229.831 312.02C229.866 312.059 229.893 312.09 229.912 312.112C229.992 312.207 230.048 312.277 230.079 312.32C230.11 312.364 230.135 312.405 230.154 312.444C230.188 312.515 230.201 312.586 230.195 312.657C230.188 312.729 230.162 312.802 230.115 312.874C230.021 313.02 229.902 313.1 229.757 313.114C229.613 313.127 229.455 313.074 229.285 312.953C229.118 312.834 229.013 312.699 228.971 312.549C228.928 312.399 228.952 312.247 229.042 312.09H229.042ZM231.082 313.232C230.975 313.38 230.924 313.521 230.927 313.653C230.931 313.785 230.989 313.896 231.101 313.985C231.215 314.076 231.333 314.106 231.455 314.074C231.577 314.042 231.692 313.951 231.798 313.803C231.905 313.655 231.956 313.514 231.952 313.381C231.948 313.249 231.888 313.137 231.775 313.047C231.662 312.957 231.545 312.928 231.424 312.96C231.303 312.992 231.188 313.083 231.082 313.232V313.232ZM230.813 313.018C230.969 312.8 231.15 312.672 231.354 312.634C231.559 312.595 231.757 312.652 231.948 312.805C232.14 312.957 232.246 313.143 232.267 313.361C232.289 313.58 232.221 313.798 232.065 314.015C231.909 314.233 231.728 314.361 231.523 314.399C231.318 314.437 231.119 314.38 230.929 314.228C230.737 314.075 230.631 313.89 230.61 313.672C230.59 313.454 230.657 313.235 230.813 313.018V313.018Z"
    fill="#00A651" />
</svg>